<svg width="23" height="23" viewBox="0 0 23 23" fill="none" xmlns="http://www.w3.org/2000/svg">
<path d="M1.09393 22.3997C0.877585 22.3997 0.666084 22.3356 0.486184 22.2154C0.306283 22.0952 0.166066 21.9244 0.0832672 21.7245C0.000468517 21.5246 -0.0211913 21.3047 0.0210274 21.0925C0.0632461 20.8803 0.167447 20.6854 0.320449 20.5325L20.5326 0.320327C20.7377 0.115186 21.016 -6.10352e-05 21.3061 -6.10352e-05C21.5962 -6.10352e-05 21.8744 0.115186 22.0796 0.320327C22.2847 0.525468 22.3999 0.8037 22.3999 1.09381C22.3999 1.38393 22.2847 1.66216 22.0796 1.8673L1.86742 22.0794C1.76594 22.1811 1.64537 22.2618 1.51263 22.3167C1.37989 22.3717 1.2376 22.3999 1.09393 22.3997Z" fill="white"/>
<path d="M21.306 22.3997C21.1623 22.3999 21.0201 22.3717 20.8873 22.3167C20.7546 22.2618 20.634 22.1811 20.5325 22.0794L0.320388 1.8673C0.115247 1.66216 0 1.38393 0 1.09381C0 0.8037 0.115247 0.525468 0.320388 0.320327C0.52553 0.115186 0.803761 -6.10352e-05 1.09387 -6.10352e-05C1.38399 -6.10352e-05 1.66222 0.115186 1.86736 0.320327L22.0795 20.5325C22.2325 20.6854 22.3367 20.8803 22.3789 21.0925C22.4211 21.3047 22.3995 21.5246 22.3167 21.7245C22.2339 21.9244 22.0937 22.0952 21.9138 22.2154C21.7339 22.3356 21.5224 22.3997 21.306 22.3997Z" fill="white"/>
</svg>
