<svg width="15" height="15" viewBox="0 0 15 15" fill="none" xmlns="http://www.w3.org/2000/svg">
<path d="M14.7342 9.28492C14.6678 9.21872 14.5841 9.17268 14.4926 9.15214C14.4011 9.1316 14.3057 9.1374 14.2174 9.16887C13.0308 9.59195 11.7484 9.66964 10.5194 9.3929C9.29035 9.11617 8.16507 8.49637 7.27427 7.60552C6.38348 6.71468 5.76375 5.58935 5.48708 4.3603C5.21042 3.13124 5.28818 1.84891 5.71133 0.662295C5.74277 0.573978 5.74854 0.478557 5.72796 0.387095C5.70738 0.295634 5.66131 0.211877 5.59507 0.145536C5.52883 0.0791944 5.44515 0.0329852 5.35372 0.0122652C5.26229 -0.00845479 5.16686 -0.00283683 5.07849 0.0284678C4.00867 0.406253 3.03781 1.02043 2.23817 1.8253C0.804682 3.25988 -0.000383255 5.20504 1.36873e-07 7.23307C0.000383529 9.2611 0.806184 11.2059 2.24022 12.64C3.67425 14.074 5.61911 14.8798 7.64713 14.8802C9.67516 14.8806 11.6203 14.0755 13.0549 12.642C13.8598 11.8422 14.474 10.8712 14.8517 9.80121C14.8829 9.71284 14.8884 9.61744 14.8676 9.52607C14.8468 9.4347 14.8006 9.35109 14.7342 9.28492Z" fill="#7A7A7A"/>
</svg>
