<svg width="244" height="40" viewBox="0 0 244 40" fill="none" xmlns="http://www.w3.org/2000/svg">
<path d="M66.2431 32.3461C63.6177 32.3461 61.3138 31.7433 59.3314 30.5378C57.349 29.3055 55.8087 27.6044 54.7103 25.4345C53.612 23.2646 53.0628 20.733 53.0628 17.8397C53.0628 14.9733 53.612 12.4417 54.7103 10.245C55.8355 8.0483 57.416 6.3338 59.452 5.10149C61.5148 3.86919 63.9392 3.25304 66.7253 3.25304C69.8864 3.25304 72.5251 4.01653 74.6415 5.54352C76.7578 7.04371 78.1107 9.14666 78.7 11.8524H74.8022C74.4271 10.1646 73.5431 8.82519 72.1501 7.83399C70.757 6.84279 68.9488 6.34719 66.7253 6.34719C64.6625 6.34719 62.8542 6.816 61.3004 7.75362C59.7735 8.66445 58.5947 9.97712 57.7643 11.6916C56.9338 13.4061 56.5186 15.4555 56.5186 17.8397C56.5186 20.224 56.9338 22.2868 57.7643 24.028C58.5947 25.7426 59.7467 27.0552 61.2201 27.9661C62.7203 28.8769 64.4348 29.3323 66.3636 29.3323C69.364 29.3323 71.6277 28.4483 73.1547 26.6802C74.6816 24.9121 75.5523 22.5145 75.7666 19.4873H67.6495V16.8352H79.2224V31.8639H76.1283L75.847 27.2428C75.1772 28.3411 74.4004 29.2787 73.5163 30.0556C72.6591 30.8057 71.6411 31.3817 70.4623 31.7835C69.2836 32.1586 67.8772 32.3461 66.2431 32.3461Z" fill="white"/>
<path d="M93.681 32.3461C91.779 32.3461 90.0913 31.9041 88.6179 31.02C87.1713 30.136 86.0327 28.9037 85.2023 27.3231C84.3718 25.7158 83.9566 23.8539 83.9566 21.7376C83.9566 19.5944 84.3584 17.7326 85.1621 16.152C85.9925 14.5715 87.1445 13.3392 88.6179 12.4551C90.1181 11.5711 91.8326 11.1291 93.7614 11.1291C95.7438 11.1291 97.4181 11.5711 98.7844 12.4551C100.177 13.3392 101.236 14.5045 101.959 15.9511C102.709 17.3709 103.084 18.9381 103.084 20.6526C103.084 20.9205 103.084 21.2018 103.084 21.4965C103.084 21.7912 103.071 22.126 103.044 22.5011H86.4881V19.8891H99.789C99.7086 18.0407 99.0924 16.5941 97.9405 15.5493C96.8154 14.5045 95.3955 13.9821 93.681 13.9821C92.5291 13.9821 91.4575 14.25 90.4663 14.7858C89.5019 15.2948 88.725 16.0583 88.1357 17.0763C87.5463 18.0675 87.2516 19.3132 87.2516 20.8133V21.9385C87.2516 23.5994 87.5463 24.9925 88.1357 26.1176C88.7518 27.2428 89.5421 28.0866 90.5065 28.6492C91.4977 29.2118 92.5559 29.493 93.681 29.493C95.1009 29.493 96.2662 29.185 97.177 28.5688C98.1146 27.9259 98.7844 27.0686 99.1862 25.9971H102.521C102.2 27.2026 101.637 28.2875 100.834 29.2519C100.03 30.2163 99.0255 30.9798 97.82 31.5424C96.6412 32.0782 95.2616 32.3461 93.681 32.3461Z" fill="white"/>
<path d="M108.041 31.8639V11.6113H111.095L111.256 15.1474C111.899 13.8883 112.81 12.9105 113.988 12.214C115.194 11.4907 116.56 11.1291 118.087 11.1291C119.668 11.1291 121.034 11.4505 122.186 12.0935C123.338 12.7096 124.235 13.6606 124.878 14.9465C125.521 16.2056 125.842 17.813 125.842 19.7686V31.8639H122.467V20.1302C122.467 18.0942 122.012 16.5673 121.101 15.5493C120.217 14.5313 118.958 14.0223 117.324 14.0223C116.198 14.0223 115.194 14.3036 114.31 14.8661C113.426 15.4019 112.716 16.1922 112.18 17.237C111.671 18.255 111.417 19.5275 111.417 21.0544V31.8639H108.041Z" fill="white"/>
<path d="M129.91 31.8639L140.277 3.73525H143.854L154.181 31.8639H150.604L142.045 7.95454L133.446 31.8639H129.91ZM134.652 24.6308L135.616 21.8983H148.354L149.319 24.6308H134.652Z" fill="white"/>
<path d="M158.925 31.8639V11.6113H162.3V31.8639H158.925ZM160.613 7.3116C159.943 7.3116 159.38 7.09729 158.925 6.66866C158.496 6.21324 158.282 5.65067 158.282 4.98094C158.282 4.31121 158.496 3.77543 158.925 3.37359C159.38 2.94496 159.943 2.73065 160.613 2.73065C161.256 2.73065 161.805 2.94496 162.26 3.37359C162.716 3.77543 162.943 4.31121 162.943 4.98094C162.943 5.65067 162.716 6.21324 162.26 6.66866C161.805 7.09729 161.256 7.3116 160.613 7.3116Z" fill="white"/>
<path d="M179.935 31.8639V3.73525H183.311V29.1716H196.411V31.8639H179.935Z" fill="white"/>
<path d="M207.917 32.3461C206.283 32.3461 204.917 32.0648 203.818 31.5022C202.72 30.9129 201.903 30.1494 201.367 29.2118C200.831 28.2473 200.564 27.2026 200.564 26.0774C200.564 24.7112 200.912 23.5592 201.608 22.6216C202.332 21.6572 203.336 20.9339 204.622 20.4517C205.935 19.9427 207.475 19.6882 209.243 19.6882H214.588C214.588 18.4291 214.387 17.3843 213.985 16.5539C213.61 15.6966 213.047 15.0537 212.297 14.625C211.574 14.1964 210.663 13.9821 209.565 13.9821C208.279 13.9821 207.167 14.3036 206.229 14.9465C205.292 15.5895 204.716 16.5405 204.502 17.7996H201.046C201.207 16.3529 201.689 15.1474 202.492 14.183C203.323 13.1918 204.368 12.4417 205.627 11.9327C206.886 11.397 208.198 11.1291 209.565 11.1291C211.44 11.1291 212.994 11.4773 214.226 12.1738C215.485 12.8436 216.423 13.7946 217.039 15.0269C217.655 16.2324 217.963 17.6656 217.963 19.3265V31.8639H214.949L214.748 28.2875C214.481 28.8501 214.132 29.3859 213.704 29.8949C213.302 30.3771 212.82 30.8057 212.257 31.1808C211.694 31.529 211.052 31.8103 210.328 32.0246C209.632 32.2389 208.828 32.3461 207.917 32.3461ZM208.44 29.493C209.377 29.493 210.221 29.3055 210.971 28.9305C211.748 28.5286 212.404 27.9928 212.94 27.3231C213.476 26.6266 213.878 25.8631 214.146 25.0326C214.44 24.2022 214.588 23.3315 214.588 22.4207V22.3001H209.525C208.212 22.3001 207.154 22.4609 206.35 22.7824C205.546 23.077 204.97 23.5057 204.622 24.0682C204.274 24.604 204.1 25.2202 204.1 25.9167C204.1 26.64 204.26 27.2695 204.582 27.8053C204.93 28.3411 205.426 28.7563 206.069 29.051C206.738 29.3457 207.529 29.493 208.44 29.493Z" fill="white"/>
<path d="M234.195 32.3461C233.043 32.3461 231.998 32.1854 231.061 31.8639C230.15 31.5156 229.346 31.0602 228.65 30.4976C227.953 29.9351 227.377 29.2787 226.922 28.5286L226.641 31.8639H223.587V2.93157H226.962V14.9465C227.605 13.9017 228.529 13.0043 229.735 12.2542C230.94 11.5041 232.427 11.1291 234.195 11.1291C236.151 11.1291 237.865 11.5979 239.339 12.5355C240.812 13.4463 241.951 14.7054 242.754 16.3128C243.585 17.8933 244 19.7016 244 21.7376C244 23.7736 243.585 25.5952 242.754 27.2026C241.951 28.8099 240.812 30.069 239.339 30.9798C237.865 31.8907 236.151 32.3461 234.195 32.3461ZM233.793 29.4127C235.106 29.4127 236.271 29.0912 237.289 28.4483C238.307 27.8053 239.098 26.9213 239.66 25.7961C240.25 24.6442 240.544 23.2913 240.544 21.7376C240.544 20.2106 240.25 18.8711 239.66 17.7192C239.098 16.5673 238.307 15.6698 237.289 15.0269C236.271 14.3839 235.106 14.0625 233.793 14.0625C232.454 14.0625 231.275 14.3839 230.257 15.0269C229.239 15.6698 228.449 16.5673 227.886 17.7192C227.324 18.8711 227.042 20.2106 227.042 21.7376C227.042 23.2913 227.324 24.6442 227.886 25.7961C228.449 26.9213 229.239 27.8053 230.257 28.4483C231.275 29.0912 232.454 29.4127 233.793 29.4127Z" fill="white"/>
<path fill-rule="evenodd" clip-rule="evenodd" d="M13.7917 4.29029C13.9249 4.39626 14.066 4.48597 14.2089 4.57683C14.3629 4.67483 14.5191 4.77414 14.6696 4.89649C15.8613 5.86209 16.9956 7.62974 16.1547 9.08809C15.5846 10.0743 16.5183 11.2116 17.5702 10.9324C18.6219 10.6504 18.862 9.19863 17.872 8.6284C16.4167 7.78583 16.5154 5.68669 17.0648 4.25346C17.1338 4.07337 17.2187 3.91149 17.3026 3.7516C17.3818 3.6008 17.46 3.45169 17.5229 3.29086C18.2623 1.42226 16.5301 -0.416285 14.6638 0.0830463C12.7976 0.582489 12.2173 3.04251 13.7917 4.29029ZM18.9211 15.6997C21.35 15.0626 23.8469 16.4717 24.4979 18.8491C25.1489 21.2238 23.7071 23.6654 21.2777 24.3034C18.8487 24.9404 16.3534 23.5306 15.7025 21.1531C15.0516 18.7755 16.492 16.3368 18.9211 15.6997ZM22.6985 3.74909C22.62 3.59914 22.5423 3.45086 22.4791 3.29086C21.7395 1.42215 23.4718 -0.41628 25.3382 0.0830503C27.2059 0.582492 27.7866 3.04251 26.2118 4.29029C26.0785 4.39583 25.9377 4.48529 25.7953 4.57577C25.6404 4.67417 25.4837 4.77374 25.3326 4.89649C24.1421 5.86197 23.0064 7.62974 23.8475 9.08809C24.4189 10.0743 23.4835 11.2145 22.432 10.9324C21.3817 10.6503 21.1399 9.19851 22.1284 8.6284C23.5855 7.78583 23.4865 5.68669 22.9372 4.25346C22.8678 4.07246 22.7826 3.90983 22.6985 3.74909ZM30.5011 6.76746C30.4754 6.93691 30.468 7.1056 30.4606 7.27637C30.4526 7.4576 30.4446 7.64114 30.4143 7.83032C30.1743 9.34383 29.2109 11.2133 27.5288 11.2133C26.3873 11.2133 25.8715 12.5891 26.6407 13.358C27.411 14.1299 28.7866 13.6123 28.7866 12.4691C28.7866 10.7905 30.6546 9.82486 32.1674 9.58323C32.3517 9.55583 32.5294 9.54806 32.7043 9.5404C32.8817 9.53263 33.0566 9.52497 33.2323 9.49714C35.2194 9.20629 35.9483 6.78297 34.5803 5.41897C33.2146 4.0496 30.7929 4.77886 30.5011 6.76746ZM35.426 14.2067C35.516 14.0653 35.6049 13.9254 35.7094 13.7925C36.9569 12.2176 39.4169 12.7967 39.9163 14.6659C40.4171 16.5315 38.576 18.2624 36.7094 17.5245C36.552 17.4616 36.4051 17.3855 36.2563 17.3084C36.0934 17.2239 35.928 17.1383 35.7446 17.0678C34.3146 16.5161 32.214 16.4182 31.3729 17.8765C30.8026 18.8634 29.352 18.624 29.0691 17.5701C28.7877 16.5227 29.9249 15.585 30.9117 16.1545C32.3686 16.997 34.1391 15.8605 35.104 14.6717C35.2271 14.5195 35.3271 14.3621 35.426 14.2067ZM36.7091 22.4778C36.5486 22.5405 36.3989 22.6191 36.2471 22.6987C36.0871 22.7828 35.9246 22.8681 35.7443 22.9373C34.3129 23.4861 32.2137 23.5839 31.3726 22.1286C30.8023 21.1387 29.3517 21.3811 29.0689 22.4292C28.7874 23.4831 29.9249 24.4178 30.9114 23.8447C32.3683 23.0051 34.1389 24.1386 35.1037 25.3334C35.2266 25.4835 35.3263 25.6405 35.4246 25.7954C35.5149 25.9376 35.604 26.0781 35.7091 26.2099C36.9566 27.7847 39.4166 27.2029 39.916 25.3399C40.4169 23.4706 38.5757 21.7368 36.7091 22.4778ZM32.7377 30.4626C32.9037 30.4694 33.0674 30.476 33.2323 30.4991C35.2194 30.7931 35.9483 33.2134 34.5803 34.5806C33.2146 35.9469 30.7929 35.2209 30.5011 33.232C30.4754 33.0626 30.468 32.8946 30.4606 32.7243C30.4526 32.5434 30.4446 32.3597 30.4143 32.1691C30.1743 30.6557 29.2109 28.79 27.5288 28.79C26.3873 28.79 25.8715 27.4109 26.6407 26.6384C27.4111 25.8724 28.7866 26.3873 28.7866 27.5274C28.7866 29.2129 30.6546 30.1746 32.1674 30.416C32.3634 30.4471 32.552 30.4549 32.7377 30.4626ZM26.2118 35.7097C26.078 35.6037 25.9368 35.5137 25.794 35.4231C25.6395 35.3249 25.4832 35.2254 25.3325 35.1029C24.1421 34.138 23.0063 32.3694 23.8474 30.9146C24.4189 29.9249 23.4834 28.7883 22.4319 29.0697C21.3817 29.3517 21.14 30.8043 22.1283 31.3746C23.5854 32.2134 23.4865 34.3154 22.9371 35.7429C22.8663 35.9291 22.7792 36.0963 22.6933 36.2611C22.6165 36.4086 22.5409 36.5537 22.479 36.7086C21.7394 38.5769 23.4718 40.4186 25.3379 39.9163C27.2059 39.4169 27.7865 36.9566 26.2118 35.7097ZM17.307 36.2569C17.3847 36.4057 17.4612 36.5523 17.523 36.7086C18.2625 38.5771 16.5303 40.4186 14.6637 39.916C12.7977 39.4169 12.2172 36.9566 13.7917 35.7097C13.9256 35.6029 14.0674 35.5126 14.2109 35.4211C14.3643 35.3237 14.5197 35.2246 14.6696 35.1029C15.8614 34.138 16.9957 32.3694 16.1547 30.9146C15.5846 29.9249 16.5184 28.7883 17.5702 29.0697C18.622 29.352 18.8621 30.8046 17.872 31.3746C16.4167 32.2134 16.5153 34.3154 17.0649 35.7429C17.1351 35.9274 17.2218 36.0937 17.307 36.2569ZM9.50274 33.2317C9.5276 33.0631 9.53457 32.896 9.54169 32.7263C9.54926 32.5446 9.55697 32.3603 9.5868 32.1689C9.82674 30.6554 10.7901 28.7897 12.4737 28.7897C13.6153 28.7897 14.1323 27.4107 13.3637 26.6381C12.5916 25.8722 11.2158 26.387 11.2158 27.5271C11.2158 29.2126 9.34809 30.1743 7.83389 30.4157C7.63926 30.4469 7.45117 30.4546 7.26529 30.4623C7.09957 30.4691 6.93557 30.4757 6.77029 30.4991C4.78331 30.7931 4.05557 33.2131 5.42117 34.5803C6.78791 35.9469 9.20809 35.2206 9.50274 33.2317ZM4.57989 25.7901C4.48857 25.9336 4.39834 26.0754 4.29163 26.2085C3.04391 27.7833 0.5841 27.2014 0.0833402 25.3385C-0.416191 23.4693 1.42361 21.7353 3.293 22.4764C3.45357 22.5391 3.60297 22.6177 3.75449 22.6974C3.91426 22.7814 4.07634 22.8667 4.25634 22.9359C5.6866 23.4847 7.78566 23.5825 8.62829 22.1272C9.19806 21.1372 10.6491 21.3796 10.9305 22.4277C11.2133 23.4818 10.0761 24.4163 9.08783 23.8433C7.631 23.0037 5.86346 24.1372 4.89846 25.3319C4.77666 25.4808 4.67763 25.6364 4.57989 25.7901ZM3.29269 17.5247C3.45014 17.4618 3.59686 17.3856 3.74531 17.3085C3.90794 17.2241 4.07269 17.1385 4.25603 17.0681C5.6864 16.5164 7.78534 16.4184 8.62797 17.8768C9.19783 18.8636 10.6489 18.6243 10.9302 17.5704C11.2129 16.5229 10.0758 15.5853 9.08754 16.1547C7.6306 16.9973 5.86303 15.8607 4.89811 14.672C4.77611 14.5212 4.67697 14.3655 4.579 14.2117C4.48789 14.0686 4.3978 13.9271 4.29129 13.7927C3.0436 12.2179 0.583789 12.7969 0.0830313 14.6662C-0.416388 16.5318 1.4233 18.2627 3.29269 17.5247ZM7.29849 9.54037C7.12146 9.53263 6.94663 9.52494 6.77026 9.49717C4.78329 9.20632 4.05566 6.783 5.42106 5.41889C6.78789 4.04963 9.20806 4.77889 9.50271 6.76749C9.52757 6.93603 9.53457 7.10386 9.54163 7.27374C9.54923 7.4558 9.55691 7.6402 9.5868 7.83034C9.82671 9.34386 10.7901 11.2133 12.4737 11.2133C13.6153 11.2133 14.1324 12.5891 13.3636 13.3581C12.5916 14.1299 11.2158 13.6123 11.2158 12.4691C11.2158 10.7905 9.34809 9.82489 7.83386 9.58326C7.6508 9.55583 7.47357 9.54806 7.29849 9.54037Z" fill="url(#paint0_linear_1352_1655)"/>
<defs>
<linearGradient id="paint0_linear_1352_1655" x1="-16.5" y1="46" x2="39.9954" y2="-0.00574516" gradientUnits="userSpaceOnUse">
<stop stop-color="#5024FE"/>
<stop offset="1" stop-color="#E01CE4"/>
</linearGradient>
</defs>
</svg>
