<svg width="438" height="351" viewBox="0 0 438 351" fill="none" xmlns="http://www.w3.org/2000/svg">
<g clip-path="url(#clip0_1596_2)">
<path d="M49.4176 343.571H376.377C384.768 326.781 390.003 307.762 392.485 289.022C396.515 258.577 396.659 229.046 385.444 200.672C376.483 178.002 355.689 158.466 333.144 152.322C316.793 147.866 301.838 147.895 285.011 146.377C246.836 142.933 215.999 112.538 179.627 99.8331C134.437 84.048 81.4897 98.5095 48.0329 134.229C14.5762 169.948 1.42588 224.87 13.1414 273.537C19.1949 298.684 32.1833 323.192 49.4176 343.571Z" fill="#271E2C"/>
<path d="M138.116 323.133C137.985 323.133 137.855 323.122 137.725 323.112C137.715 323.111 137.619 323.101 137.672 323.108C137.728 323.113 137.62 323.101 137.609 323.1C137.526 323.09 137.444 323.08 137.361 323.068C137.161 323.039 136.962 323.004 136.763 322.963C135.641 322.727 134.552 322.306 133.528 321.693C133.044 321.403 132.672 322.295 133.157 322.586C134.682 323.497 136.466 324.144 138.173 324.14C138.708 324.135 138.651 323.131 138.116 323.133Z" fill="#EA9632"/>
<path d="M137.722 326.361C136.003 326.649 134.15 326.345 132.491 325.743C131.973 325.556 131.81 326.538 132.324 326.724C133.566 327.175 134.854 327.407 136.143 327.445C136.686 327.46 137.24 327.456 137.778 327.365C138.001 327.327 138.182 327.127 138.167 326.838C138.152 326.586 137.946 326.324 137.722 326.361Z" fill="#EA9632"/>
<path d="M133.383 339.06C133.414 339.039 133.445 339.021 133.475 339.001C133.51 338.979 133.545 338.958 133.579 338.937C133.652 338.893 133.496 338.983 133.583 338.935C133.607 338.921 133.632 338.907 133.656 338.893C133.973 338.716 134.298 338.561 134.628 338.422C135.693 337.974 136.803 337.716 137.937 337.659C138.472 337.632 138.417 336.628 137.881 336.655C136.193 336.739 134.392 337.216 132.914 338.216C132.451 338.532 132.92 339.374 133.383 339.06Z" fill="#EA9632"/>
<path d="M132.662 335.539C134.126 334.794 135.849 334.597 137.429 334.729C137.655 334.747 137.831 334.451 137.817 334.202C137.801 333.905 137.6 333.743 137.373 333.725C136.176 333.625 134.981 333.751 133.817 334.066C133.335 334.196 132.844 334.351 132.388 334.583C131.9 334.831 132.17 335.79 132.662 335.539Z" fill="#EA9632"/>
<path d="M137.509 330.261C135.918 330.253 134.328 330.245 132.738 330.237C132.509 330.236 132.28 330.235 132.051 330.234C131.513 330.231 131.571 331.235 132.107 331.238C133.697 331.247 135.287 331.255 136.878 331.263C137.107 331.264 137.336 331.265 137.565 331.266C138.102 331.268 138.044 330.264 137.509 330.261Z" fill="#EA9632"/>
<path d="M217.735 328.551C217.604 328.552 217.475 328.544 217.344 328.535C217.334 328.534 217.237 328.526 217.291 328.531C217.347 328.535 217.239 328.525 217.228 328.524C217.145 328.516 217.062 328.507 216.98 328.497C216.78 328.474 216.581 328.442 216.383 328.407C215.263 328.206 214.177 327.839 213.158 327.304C212.675 327.05 212.297 327.843 212.78 328.096C214.298 328.894 216.077 329.456 217.783 329.44C218.321 329.436 218.27 328.547 217.735 328.551Z" fill="#EA9632"/>
<path d="M217.321 331.416C215.602 331.683 213.751 331.426 212.096 330.903C211.58 330.74 211.41 331.612 211.922 331.774C213.16 332.166 214.447 332.362 215.735 332.387C216.278 332.397 216.832 332.39 217.37 332.306C217.593 332.272 217.776 332.092 217.762 331.836C217.75 331.613 217.545 331.382 217.321 331.416Z" fill="#EA9632"/>
<path d="M212.903 342.701C212.933 342.683 212.965 342.666 212.995 342.648C213.03 342.629 213.065 342.61 213.1 342.591C213.173 342.552 213.016 342.634 213.104 342.589C213.129 342.577 213.153 342.564 213.178 342.552C213.496 342.394 213.822 342.254 214.153 342.128C215.22 341.725 216.333 341.488 217.465 341.431C218.001 341.404 217.952 340.514 217.415 340.541C215.728 340.627 213.924 341.061 212.441 341.957C211.975 342.239 212.438 342.982 212.903 342.701Z" fill="#EA9632"/>
<path d="M212.206 339.585C213.674 338.914 215.397 338.729 216.975 338.835C217.2 338.851 217.379 338.587 217.367 338.366C217.353 338.102 217.152 337.961 216.926 337.946C215.73 337.865 214.534 337.985 213.369 338.272C212.885 338.391 212.394 338.531 211.936 338.74C211.448 338.963 211.711 339.809 212.206 339.585Z" fill="#EA9632"/>
<path d="M217.083 334.875C215.494 334.878 213.904 334.882 212.314 334.885C212.086 334.885 211.857 334.886 211.628 334.886C211.091 334.887 211.142 335.777 211.677 335.776C213.267 335.773 214.857 335.77 216.446 335.766C216.675 335.766 216.904 335.765 217.133 335.765C217.67 335.764 217.619 334.874 217.083 334.875Z" fill="#EA9632"/>
<path d="M283.002 200.538C284.827 195.31 290.658 193.25 295.671 193.592C298.855 193.81 301.969 195.072 304.624 196.848C307.297 198.637 309.344 201.18 311.856 203.174C317.162 207.389 323.429 205.992 329.648 206.213C336.069 206.441 342.645 208.866 347.083 213.763C351.358 218.48 353.364 225.327 351.501 231.574C349.828 237.183 345.904 241.756 344.229 247.365C340.121 261.12 354.579 269.055 362.036 277.658C366.625 282.954 370.416 289.551 370.754 296.786C371.06 303.329 368.639 310.212 363.191 313.967C362.611 314.367 363.157 315.337 363.742 314.934C368.34 311.764 370.972 306.535 371.676 300.977C372.47 294.702 370.631 288.512 367.438 283.187C363.84 277.186 358.744 272.717 353.708 268.044C348.555 263.262 343.313 256.888 344.885 249.227C346.15 243.064 350.541 238.196 352.431 232.266C354.29 226.436 353.004 220.043 349.549 215.105C345.852 209.82 339.939 206.617 333.763 205.53C330.336 204.927 326.933 205.14 323.478 205.217C319.849 205.299 316.274 204.989 313.205 202.813C310.185 200.671 307.914 197.625 304.777 195.623C301.948 193.818 298.659 192.609 295.316 192.455C289.87 192.202 283.897 194.658 281.948 200.241C281.712 200.919 282.767 201.212 283.002 200.538Z" fill="url(#paint0_linear_1596_2)"/>
<path d="M363.416 341.12L360.564 341.051L362.597 244.856L304.545 206.043L284.33 202.674L284.787 199.789L305.851 203.424L365.483 243.297L363.416 341.12Z" fill="#FFB854"/>
<path d="M363.031 250.201C365.932 250.201 368.283 247.79 368.283 244.817C368.283 241.843 365.932 239.433 363.031 239.433C360.131 239.433 357.78 241.843 357.78 244.817C357.78 247.79 360.131 250.201 363.031 250.201Z" fill="url(#paint1_linear_1596_2)"/>
<path d="M305.554 209.708C307.685 209.708 309.412 207.937 309.412 205.753C309.412 203.568 307.685 201.797 305.554 201.797C303.423 201.797 301.696 203.568 301.696 205.753C301.696 207.937 303.423 209.708 305.554 209.708Z" fill="url(#paint2_linear_1596_2)"/>
<path d="M263.454 201.798C273.203 201.798 281.63 202.892 285.769 204.485C285.687 193.513 275.767 184.638 263.534 184.638C251.326 184.638 241.425 193.476 241.303 204.418C245.502 202.861 253.84 201.798 263.454 201.798Z" fill="#FFB854"/>
<path d="M279.084 190.345C273.518 193.582 267.58 195.079 261.273 196.174C255.996 197.09 251.356 197.999 247.14 201.534C246.149 202.365 245.079 203.04 243.983 203.638C248.571 202.52 255.562 201.797 263.455 201.797C273.204 201.797 281.63 202.891 285.769 204.484C285.728 198.944 283.173 193.943 279.084 190.345Z" fill="#F7A94B"/>
<path d="M285.769 204.418C285.769 207.33 275.815 209.692 263.536 209.692C251.257 209.692 241.303 207.331 241.303 204.418C241.303 201.505 251.257 199.144 263.536 199.144C275.815 199.145 285.769 201.506 285.769 204.418Z" fill="white"/>
<path d="M285.474 234.952L285.78 201.746L286.494 201.754L286.187 234.96L285.474 234.952Z" fill="#FFB854"/>
<path d="M287.504 236.263C287.455 237.246 286.639 238.002 285.68 237.951C284.722 237.901 283.985 237.064 284.034 236.081C284.083 235.099 284.899 234.344 285.857 234.393C286.816 234.444 287.552 235.281 287.504 236.263Z" fill="#FFB854"/>
<path d="M379.33 343.515H343.054C342.604 343.515 342.239 343.15 342.239 342.701V341.478C342.239 341.029 342.604 340.664 343.054 340.664H379.33C379.78 340.664 380.145 341.029 380.145 341.478V342.701C380.145 343.15 379.78 343.515 379.33 343.515Z" fill="#F7A94B"/>
<path d="M124.428 202.958C122.421 207.399 122.019 212.494 122.77 217.328C123.415 221.479 124.89 225.492 127.076 229.048C127.306 229.422 127.553 229.841 127.466 230.274C127.384 230.685 127.028 230.967 126.689 231.201C122.077 234.379 116.265 235.325 110.725 234.859C105.187 234.392 99.8389 232.616 94.5978 230.72C94.3398 230.627 94.0331 230.466 94.0342 230.185C94.0352 230.039 94.1253 229.912 94.2103 229.795C97.6954 225.015 99.7416 219.147 100.003 213.184C100.263 207.222 98.7366 201.19 95.6825 196.11" fill="#FF8D6B"/>
<path d="M100.004 213.185C100.004 213.185 100.621 208.839 98.2661 201.607C98.2661 201.607 108.538 210.68 119.411 210.682C119.411 210.682 115.94 216.167 100.004 213.185Z" fill="#EA5F44"/>
<path d="M88.8092 226.891C88.8092 226.891 94.6098 224.241 95.5785 216.86C95.7981 215.191 97.464 214.153 99.0118 214.714C104.192 216.589 114.534 219.405 123.967 216.367C125.309 215.935 126.637 216.994 126.503 218.429C126.147 222.247 126.537 228.18 132.086 229.394C132.086 229.394 146.512 233.945 150.063 236.447C150.063 236.447 152.061 263.865 155.389 277.858C158.718 291.852 160.272 305.534 157.83 324.12C155.389 342.706 165.062 338.221 164.063 345.73C163.064 353.239 100.137 350.402 69.8389 347.296C69.8389 347.296 67.9471 347.711 71.2758 333.605C74.6045 319.498 71.2758 248.279 66.6148 241.453L63.2861 234.627C63.2861 234.627 85.984 228.466 88.8092 226.891Z" fill="#FFB854"/>
<path d="M148.605 236.519C148.605 236.519 158.206 239.628 160.77 247.667C163.681 256.794 166.845 313.879 178.414 317.122C188.478 319.943 214.037 323.299 224.24 325.359C226.222 325.76 227.614 327.582 227.51 329.65L226.997 339.962C226.914 341.634 225.629 342.977 223.999 343.081C210.851 343.925 156.57 346.981 153.279 340.16C149.535 332.395 148.605 236.519 148.605 236.519Z" fill="#FFB854"/>
<path d="M75.5162 265.268C75.4012 263.32 75.9358 261.34 77.1914 259.896C77.812 259.181 78.5672 258.671 79.4147 258.814C81.7861 259.214 80.8516 273.922 81.4266 279.118C82.0016 284.313 81.755 301.34 91.5432 302.3C101.33 303.259 124.325 306.936 128.133 309.014C131.941 311.092 142.289 310.453 143.366 304.058C144.444 297.662 142.145 259.213 144.659 259.453C147.175 259.694 151.27 299.022 151.126 304.698C150.982 310.373 151.844 319.406 156.012 322.923C160.18 326.441 78.9837 324.042 78.9837 324.042L75.5162 265.268Z" fill="#EA9632"/>
<path d="M135.518 321.618C139.069 319.85 142.644 318.072 146.442 316.961C151.665 315.435 157.155 315.217 162.583 315.007C164.318 314.941 166.068 314.875 167.779 315.177C169.328 315.451 170.815 316.022 172.232 316.717C176.356 318.74 179.898 321.797 183.392 324.821C183.746 325.129 184.125 325.665 183.813 326.017C183.722 326.119 183.592 326.171 183.463 326.213C181.852 326.731 180.166 325.87 178.629 325.152C174.656 323.294 170.264 322.255 165.911 322.603C161.558 322.95 157.255 324.753 154.207 327.958C153.263 328.949 152.432 330.075 151.317 330.857C150.448 331.467 149.442 331.841 148.421 332.108C143.252 333.459 137.808 332.148 132.669 330.676" fill="#FF8D6B"/>
<path d="M64.2473 234.365C64.2473 234.365 70.5306 235.935 74.0821 255.389C77.6325 274.844 73.8604 307.722 84.5126 309.543C94.2666 311.21 123.091 313.258 135.127 317.434C136.849 318.032 137.999 319.677 137.999 321.541V333.171C137.999 335.518 136.252 337.473 133.971 337.677C119.202 338.991 68.1717 343.024 54.5512 337.303C38.5719 330.59 51.2226 257.666 51.2226 257.666C51.2226 257.666 55.5023 235.435 64.2473 234.365Z" fill="#FFB854"/>
<path d="M96.9038 218.25C96.8903 218.507 96.8551 218.763 96.822 219.018C96.8189 219.039 96.7909 219.228 96.8075 219.122C96.824 219.013 96.7909 219.225 96.7867 219.246C96.7588 219.409 96.7298 219.571 96.6987 219.733C96.622 220.123 96.534 220.513 96.4345 220.899C95.8709 223.085 94.9603 225.185 93.6994 227.138C93.1027 228.063 94.7344 228.894 95.3312 227.969C97.2084 225.063 98.6153 221.615 98.7945 218.249C98.8494 217.191 96.9597 217.194 96.9038 218.25Z" fill="#EA9632"/>
<path d="M102.916 219.379C103.269 222.799 102.496 226.42 101.185 229.626C100.776 230.626 102.601 231.057 103.007 230.064C103.988 227.666 104.564 225.15 104.776 222.611C104.865 221.543 104.917 220.449 104.806 219.379C104.76 218.935 104.404 218.555 103.861 218.555C103.385 218.555 102.869 218.933 102.916 219.379Z" fill="#EA9632"/>
<path d="M126.261 229.323C126.226 229.262 126.194 229.199 126.161 229.137C126.123 229.065 126.088 228.994 126.052 228.922C125.978 228.775 126.13 229.091 126.048 228.914C126.025 228.864 126.001 228.816 125.978 228.766C125.681 228.122 125.425 227.464 125.201 226.797C124.479 224.649 124.115 222.431 124.134 220.191C124.142 219.131 122.254 219.13 122.244 220.191C122.217 223.529 122.914 227.133 124.628 230.154C125.169 231.104 126.799 230.271 126.261 229.323Z" fill="#EA9632"/>
<path d="M119.577 230.359C118.339 227.391 118.16 223.974 118.58 220.872C118.64 220.43 118.103 220.049 117.635 220.049C117.075 220.049 116.751 220.429 116.691 220.872C116.372 223.221 116.478 225.593 116.941 227.921C117.134 228.888 117.369 229.873 117.755 230.797C118.167 231.785 119.994 231.358 119.577 230.359Z" fill="#EA9632"/>
<path d="M110.21 220.226C110.02 223.361 109.831 226.496 109.642 229.63C109.615 230.082 109.587 230.532 109.56 230.984C109.496 232.043 111.386 232.04 111.45 230.984C111.639 227.849 111.829 224.715 112.018 221.58C112.045 221.128 112.073 220.678 112.099 220.226C112.164 219.167 110.274 219.17 110.21 220.226Z" fill="#EA9632"/>
<path d="M92.9812 171.383C92.9812 171.383 89.6909 187.457 94.2473 199.878C98.8047 212.297 90.9869 221.802 90.9869 221.802C90.9869 221.802 94.1146 209.755 89.3801 201.375C84.6445 192.994 84.0218 183.321 85.407 179.128C86.7901 174.937 92.9812 171.383 92.9812 171.383Z" fill="#5E1212"/>
<path d="M125.754 170.837C125.754 170.837 132.901 185.537 131.553 198.735C130.205 211.933 140.111 219.103 140.111 219.103C140.111 219.103 134.116 208.258 136.631 198.923C139.147 189.587 137.366 180.066 134.992 176.369C132.62 172.672 125.754 170.837 125.754 170.837Z" fill="#5E1212"/>
<path d="M130.981 181.678C131.203 180.138 131.923 178.677 133 177.579C133.727 176.839 134.846 176.246 135.742 176.753C136.44 177.148 136.691 178.039 136.814 178.846C137.034 180.288 137.051 181.784 136.655 183.186C136.26 184.587 135.421 185.891 134.201 186.643C133.554 187.043 132.783 187.281 132.038 187.149C131.293 187.018 130.597 186.459 130.432 185.704" fill="#FF8D6B"/>
<path d="M91.8887 189.192C91.6815 188.496 91.1283 187.952 90.4963 187.624C89.8644 187.296 89.1557 187.159 88.4533 187.061C87.9312 186.989 87.3873 186.938 86.8889 187.11C86.0032 187.417 85.4572 188.392 85.4002 189.349C85.3432 190.305 85.6893 191.241 86.1223 192.09C86.9667 193.748 88.1881 195.236 89.7618 196.184C90.4684 196.609 91.2588 196.926 92.0783 196.945C92.8978 196.964 93.7494 196.652 94.2674 196" fill="#FF8D6B"/>
<path d="M90.912 170.747C89.0348 176.367 90.3018 182.528 91.7066 188.29C92.2246 190.416 92.7633 192.545 93.5839 194.568C96.0361 200.615 99.3845 205.867 104.8 209.339C107.458 211.043 111.925 212.019 115.059 211.966C118.533 211.908 122.035 210.222 124.473 207.685C127.686 204.343 129.391 200.842 130.16 197.708C131.903 190.6 131.923 185.5 131.455 178.187C130.987 170.874 129.553 161.806 124.71 156.414C122.456 153.906 119.498 151.749 116.173 151.689" fill="#FF8D6B"/>
<path d="M103.321 143.217C102.831 150.614 96.7254 156.21 89.6857 155.72C82.646 155.229 78.616 149.193 79.106 141.798C79.5971 134.402 84.2726 130.705 91.3123 131.196C98.3519 131.686 103.811 135.821 103.321 143.217Z" fill="#5E1212"/>
<path d="M126.774 151.496C123.938 146.76 110.799 135.402 96.2383 139.237C78.3568 143.947 77.2731 171.447 86.6583 181.674C86.7743 181.801 86.8748 181.909 86.9857 182.03C87.0095 183.354 87.0499 184.165 87.0499 184.165C87.5275 184.005 87.9875 183.812 88.4382 183.601C92.433 187.892 90.6304 185.637 88.7946 183.434C97.9456 178.85 101.456 164.425 101.456 164.425C102.302 170.724 100.591 177.457 100.591 177.457C108.372 171.422 110.843 164.089 111.57 159.132C118.114 172.543 133.957 173.126 133.957 173.126C133.957 173.126 134.475 157.441 126.774 151.496ZM86.706 180.958L86.9701 180.517C86.9712 180.781 86.9722 181.034 86.9753 181.274C86.8085 181.079 86.706 180.958 86.706 180.958Z" fill="#5E1212"/>
<path d="M111.507 197.277C113.88 196.547 116.254 195.816 118.627 195.086C119.274 194.887 119.936 194.686 120.61 194.715C120.707 194.719 120.808 194.731 120.884 194.791C121.02 194.899 121.016 195.11 120.99 195.285C120.696 197.287 119.246 199.1 117.346 199.653C115.447 200.206 112.518 199.017 111.507 197.277Z" fill="white"/>
<path d="M118.621 173.336C120.514 172.173 123.899 170.845 125.835 172.297C126.767 172.996 126.841 172.005 125.912 171.309C123.457 169.468 120.245 170.204 117.824 171.692C117.41 171.947 117.194 172.453 117.421 172.923C117.623 173.339 118.205 173.592 118.621 173.336Z" fill="#5E1212"/>
<path d="M103.571 176.476C101.413 176.002 97.7926 175.864 96.4168 177.88C95.7537 178.851 95.3735 177.936 96.0324 176.969C97.776 174.415 101.049 174.049 103.808 174.657C104.28 174.761 104.645 175.169 104.576 175.688C104.517 176.149 104.046 176.581 103.571 176.476Z" fill="#5E1212"/>
<path d="M114.262 178.224C114.642 180.605 115.588 182.859 117 184.789C117.34 185.254 117.708 185.698 118.101 186.116C118.318 186.346 118.542 186.569 118.773 186.783C118.825 186.832 119.034 186.966 119.049 187.035C119.072 187.142 119.024 187.128 118.948 187.228C118.613 187.658 118.015 187.972 117.546 188.211C116.917 188.532 116.256 188.748 115.564 188.873C114.997 188.976 115.175 189.876 115.743 189.772C117.035 189.538 118.323 188.991 119.328 188.113C119.687 187.799 120.211 187.361 120.015 186.815C119.909 186.518 119.601 186.326 119.384 186.123C119.133 185.887 118.891 185.642 118.659 185.388C116.797 183.358 115.578 180.788 115.139 178.043C115.046 177.458 114.169 177.641 114.262 178.224Z" fill="#EA5F44"/>
<path d="M105.702 182.191C105.628 183.3 104.876 184.152 104.022 184.092C103.167 184.033 102.534 183.085 102.607 181.975C102.681 180.866 103.433 180.014 104.288 180.074C105.142 180.133 105.775 181.081 105.702 182.191Z" fill="#3E1D15"/>
<path d="M124.916 179.498C124.842 180.608 124.09 181.46 123.235 181.4C122.381 181.34 121.748 180.393 121.821 179.283C121.895 178.173 122.647 177.322 123.502 177.382C124.356 177.441 124.989 178.389 124.916 179.498Z" fill="#3E1D15"/>
<path opacity="0.5" d="M107.269 192.262C107.693 194.283 105.884 196.397 103.23 196.981C100.576 197.565 98.08 196.401 97.6563 194.379C97.2326 192.356 99.0414 190.244 101.696 189.66C104.351 189.076 106.846 190.241 107.269 192.262Z" fill="#EA5F44"/>
<path opacity="0.5" d="M131.579 187.349C132.002 189.371 130.357 191.448 127.905 191.988C125.453 192.527 123.121 191.327 122.698 189.305C122.274 187.283 123.918 185.207 126.372 184.667C128.823 184.126 131.155 185.328 131.579 187.349Z" fill="#EA5F44"/>
<path d="M131 179.613C131.604 185.927 134.11 190.842 136.598 190.591C139.085 190.34 140.612 185.02 140.008 178.707C139.404 172.394 136.898 167.48 134.41 167.729C131.922 167.979 130.395 173.3 131 179.613Z" fill="#0F3060"/>
<path opacity="0.26" d="M133.844 179.327C134.216 183.215 135.76 186.242 137.292 186.088C138.824 185.933 139.765 182.656 139.393 178.768C139.021 174.88 137.478 171.853 135.945 172.007C134.413 172.161 133.472 175.438 133.844 179.327Z" fill="white"/>
<path d="M83.2368 178.611C83.1229 178.056 80.4997 164.948 85.7336 156.284C90.521 148.358 99.2722 138.588 119.892 145.205C120.433 145.352 134.177 149.367 136.198 171.059L133.869 171.36C132.024 151.542 119.781 147.875 119.26 147.729C100.075 141.57 92.0429 150.487 87.6678 157.728C83.0017 165.451 85.4912 177.871 85.5171 177.996L83.2368 178.611Z" fill="#D9E0F3"/>
<path d="M92.6691 185.369C93.7817 192.033 90.9161 198.097 86.2707 198.912C81.6242 199.728 76.9559 194.985 75.8443 188.319C74.7316 181.654 77.5972 175.591 82.2427 174.776C86.8892 173.961 91.5574 178.704 92.6691 185.369Z" fill="#0F3060"/>
<path d="M90.3656 185.773C91.328 191.54 88.8489 196.788 84.8281 197.493C80.8074 198.199 76.768 194.095 75.8055 188.327C74.8431 182.559 77.3222 177.312 81.343 176.607C85.3637 175.902 89.4031 180.005 90.3656 185.773Z" fill="#D9E0F3"/>
<path d="M133.303 171.679C133.707 169.233 136.003 167.542 138.378 168.012C139.885 168.311 141.383 169.103 142.125 170.935C143.709 174.844 145 185.618 139.48 188.915C138.012 189.792 136.101 189.169 135.279 187.644C133.821 184.942 131.978 179.687 133.303 171.679Z" fill="#D9E0F3"/>
<path d="M108.807 205.346C89.2324 204.691 82.4963 192.975 82.2188 192.478L83.9498 191.461C84.013 191.575 90.4746 202.687 108.871 203.301L108.807 205.346Z" fill="#D9E0F3"/>
<path d="M116.509 204.533C116.509 206.359 114.469 207.839 111.953 207.839C109.436 207.839 107.396 206.359 107.396 204.533C107.396 202.706 109.436 201.226 111.953 201.226C114.469 201.226 116.509 202.706 116.509 204.533Z" fill="#0F3060"/>
<path d="M240.989 338.7H197.066C196.468 338.7 195.983 339.185 195.983 339.783V343.209C195.983 343.807 196.468 344.292 197.066 344.292H240.989C241.586 344.292 242.071 343.807 242.071 343.209V339.783C242.071 339.185 241.586 338.7 240.989 338.7Z" fill="#D9E0F3"/>
<path d="M276.779 318.681H145.093C143.762 318.681 142.684 317.603 142.684 316.272V219.735C142.684 218.404 143.762 217.326 145.093 217.326H276.779C278.11 217.326 279.189 218.404 279.189 219.735V316.272C279.189 317.603 278.111 318.681 276.779 318.681Z" fill="#C4CEEE"/>
<path d="M280.824 318.681H149.138C147.807 318.681 146.728 317.603 146.728 316.272V219.735C146.728 218.404 147.807 217.326 149.138 217.326H280.824C282.154 217.326 283.234 218.404 283.234 219.735V316.272C283.234 317.603 282.155 318.681 280.824 318.681Z" fill="#B1BFDD"/>
<path opacity="0.2" d="M165.903 318.681L247.172 217.327H273.119L231.527 318.681H165.903Z" fill="#EEF1FA"/>
<path d="M223.865 263.856C223.865 267.093 221.305 269.718 218.148 269.718C214.991 269.718 212.431 267.093 212.431 263.856C212.431 260.618 214.991 257.994 218.148 257.994C221.305 257.994 223.865 260.618 223.865 263.856Z" fill="#EEF1FA"/>
<path d="M205.659 295.807L198.974 312.219H210.935L205.659 295.807Z" fill="#C4CEEE"/>
<path d="M223.865 302.27L236.443 344.292H208.825L205.659 302.27H223.865Z" fill="#D9E0F3"/>
<path d="M398.613 350.414H5.20426C2.51478 350.414 0.333984 349.118 0.333984 347.52V346.465C0.333984 344.867 2.51478 343.571 5.20426 343.571H398.614C401.303 343.571 403.484 344.867 403.484 346.465V347.52C403.483 349.118 401.303 350.414 398.613 350.414Z" fill="url(#paint3_linear_1596_2)"/>
<path d="M364.94 140.426C395.767 140.322 423.666 121.154 433.818 92.0457C434.484 90.1364 435.065 88.2115 435.555 86.2803C441.442 63.0965 434.834 36.9322 418.023 19.9167C401.211 2.90135 374.607 -3.98811 351.899 3.53124C333.623 9.5836 322.6 26.8622 303.418 28.5022C294.848 29.2356 287.634 29.7568 279.285 31.9686C267.504 35.0901 257.191 45.215 251.685 56.0869C247.16 65.0235 242.919 79.1536 244.943 93.6567C244.969 93.8453 244.996 94.0338 245.024 94.2224C248.94 121.025 272.207 140.74 299.293 140.648L364.94 140.426Z" fill="#271E2C"/>
<path d="M357.642 44.8754C357.642 44.8754 358.325 34.7867 364.636 35.3472C370.947 35.9087 358.598 55.74 357.642 44.8754Z" stroke="#162A74" stroke-miterlimit="10"/>
<path d="M368.179 35.2529C368.179 35.2529 367.292 52.3274 379.144 55.97C390.996 59.6126 397.831 69.9706 393.846 82.2245C393.846 82.2245 356.368 85.6568 355.979 62.9776C355.591 40.2993 368.179 35.2529 368.179 35.2529Z" fill="#5E1212"/>
<path d="M343.989 59.6312C343.989 59.6312 344.37 73.4547 340.229 80.4902C340.229 80.4902 352.028 85.1688 363.566 78.4182C363.566 78.4182 355.344 58.4326 359.403 46.6987" fill="#FF8D6B"/>
<path d="M343.823 66.3361C343.823 66.3361 350.085 63.9191 353.182 56.2837L343.374 60.4246C343.374 60.4246 343.808 64.0527 343.823 66.3361Z" fill="#EA5F44"/>
<path d="M331.16 21.6202C331.16 21.6202 328.831 22.6428 326.978 29.7083C325.126 36.7739 326.986 46.4948 320.1 56.6487C320.1 56.6487 332.536 55.0729 334.67 36.3108C336.803 17.5477 331.16 21.6202 331.16 21.6202Z" fill="#5E1212"/>
<path d="M334.015 24.9302C334.015 24.9302 327.917 32.1667 328.78 40.0041C329.643 47.8415 332.065 58.3663 338.908 63.3101C338.908 63.3101 342.228 66.2151 356.229 55.3028C370.23 44.3906 360.583 28.091 354.008 24.2796C347.432 20.4691 338.522 19.6196 334.015 24.9302Z" fill="#FF8D6B"/>
<path d="M358.862 45.0699C358.862 45.0699 334.64 41.5786 331.865 25.5443C329.091 9.50999 357.859 16.6098 364.492 22.5316C371.126 28.4524 370.005 45.5051 358.862 45.0699Z" fill="#5E1212"/>
<path d="M342.008 23.0715C342.008 23.0715 342.664 6.04569 357.735 2.97185C372.807 -0.101986 375.713 25.4336 350.219 26.9834" fill="#5E1212"/>
<path opacity="0.5" d="M347.006 48.126C347.269 49.4438 346.036 50.802 344.252 51.1584C342.468 51.5148 340.809 50.7357 340.546 49.4179C340.282 48.1001 341.515 46.743 343.299 46.3855C345.083 46.0281 346.743 46.8082 347.006 48.126Z" fill="#EA5F44"/>
<path d="M334.813 43.3212C334.873 45.1062 334.494 46.8819 333.721 48.4919C333.535 48.8793 333.326 49.2564 333.092 49.618C332.965 49.8169 332.83 50.0117 332.688 50.2013C332.656 50.2438 332.521 50.3722 332.518 50.4251C332.516 50.5059 332.551 50.4893 332.622 50.5494C332.933 50.8125 333.423 50.9514 333.807 51.056C334.322 51.1959 334.844 51.2549 335.378 51.2435C335.815 51.2342 335.812 51.9138 335.375 51.9231C334.379 51.9439 333.342 51.7367 332.468 51.2477C332.155 51.0726 331.702 50.8322 331.769 50.4064C331.806 50.1764 332.007 49.9899 332.139 49.8107C332.293 49.6025 332.437 49.3891 332.573 49.1705C333.666 47.4217 334.203 45.3756 334.135 43.318C334.118 42.8809 334.798 42.884 334.813 43.3212Z" fill="#EA5F44"/>
<path d="M339.409 38.8953C340.964 38.2716 343.655 37.707 344.936 39.0009C345.554 39.6236 345.724 38.9077 345.109 38.2871C343.486 36.6471 340.992 36.8004 339.005 37.5971C338.665 37.7339 338.443 38.0778 338.558 38.4477C338.661 38.7782 339.067 39.033 339.409 38.8953Z" fill="#5E1212"/>
<path d="M342.819 42.8972C342.86 43.7197 342.368 44.4128 341.719 44.445C341.069 44.4781 340.51 43.8378 340.467 43.0163C340.426 42.1937 340.918 41.5006 341.568 41.4675C342.217 41.4354 342.777 42.0746 342.819 42.8972Z" fill="#3E1D15"/>
<path d="M331.931 44.0771C332.025 44.8945 331.578 45.6187 330.932 45.6922C330.287 45.7658 329.687 45.1639 329.593 44.3465C329.498 43.5291 329.945 42.8049 330.591 42.7313C331.237 42.6567 331.837 43.2597 331.931 44.0771Z" fill="#3E1D15"/>
<path d="M331.538 40.1759C330.136 40.0423 327.947 40.2619 327.619 41.7362C327.461 42.4469 327.011 41.8636 327.168 41.157C327.584 39.2881 329.443 38.7597 331.234 38.9306C331.541 38.9597 331.858 39.2031 331.944 39.5585C332.022 39.8755 331.847 40.206 331.538 40.1759Z" fill="#5E1212"/>
<path d="M334.114 54.2438C335.515 54.0562 336.916 53.8687 338.316 53.6822C338.698 53.6315 339.088 53.5807 339.465 53.6574C339.519 53.6688 339.575 53.6833 339.612 53.7237C339.68 53.7952 339.659 53.9112 339.629 54.0044C339.287 55.0778 338.311 55.9418 337.193 56.0744C336.075 56.207 334.531 55.2901 334.114 54.2438Z" fill="white"/>
<path d="M372.605 40.466L364.417 35.4496C363.474 34.8716 362.237 35.2279 361.744 36.2204L351.145 57.6327C350.676 58.5817 351.08 59.7306 352.04 60.1771L360.968 64.3222C361.904 64.7563 363.014 64.3584 363.46 63.4291L373.319 42.8882C373.737 42.0169 373.429 40.9716 372.605 40.466Z" fill="#D9E0F3"/>
<path d="M365.614 46.196C366.438 46.196 367.105 45.5285 367.105 44.7052C367.105 43.8818 366.438 43.2144 365.614 43.2144C364.791 43.2144 364.124 43.8818 364.124 44.7052C364.124 45.5285 364.791 46.196 365.614 46.196Z" fill="#C4CEEE"/>
<path d="M343.957 75.8997C346.598 77.2269 351.878 78.6483 359.188 74.6607C360.051 74.1903 361.009 73.9966 361.955 74.0712C366.893 74.4597 382.418 75.8179 390.137 78.0598C391.982 78.5954 393.386 80.1836 393.847 82.2256C395.992 91.7227 402.39 121.475 403.237 141.837C403.38 145.273 400.885 148.228 397.758 148.309C381.611 148.73 334.683 149.952 317.749 150.392C314.466 150.478 311.964 147.363 312.415 143.763L319.255 89.114C319.519 87.0006 320.774 85.1627 322.555 84.2842L340.578 76.0728C342.015 75.3621 342.559 75.1963 343.957 75.8997Z" fill="#F53C4E"/>
<path d="M396.859 96.4366C397.015 104.81 395.739 113.471 394.645 120.694C393.643 127.315 391.805 134.597 386.841 139.429C379.835 146.249 369.787 144.126 361.021 145.047C349.35 146.274 327.804 152.327 319.425 140.24C314.412 133.01 317.431 125.121 319.244 117.398C321.133 109.347 320.078 100.516 318.89 92.0181L312.414 143.763C311.963 147.362 314.465 150.477 317.748 150.391C334.681 149.951 381.609 148.729 397.757 148.309C400.884 148.227 403.379 145.273 403.236 141.836C402.659 127.933 399.492 109.658 396.859 96.4366Z" fill="#E82542"/>
<path d="M365.212 115.847L366.424 92.9275C366.424 92.9275 373.076 90.7529 374.413 97.6123C375.752 104.472 378.846 114.342 382.443 121.034C386.04 127.726 382.945 138.016 370.398 138.936C357.851 139.856 344.409 136.569 350.949 120.031C357.488 103.492 362.227 94.9353 362.227 94.9353" fill="#E82542"/>
<path d="M341.032 77.2548C340.993 77.4413 340.94 77.6247 340.887 77.8081C340.883 77.8226 340.841 77.9583 340.865 77.8826C340.889 77.8039 340.841 77.9572 340.836 77.9717C340.798 78.0878 340.758 78.2028 340.717 78.3178C340.617 78.5954 340.509 78.871 340.392 79.1424C339.734 80.6809 338.823 82.1178 337.666 83.4087C337.118 84.0199 338.253 84.8084 338.801 84.1982C340.524 82.2774 341.953 79.9091 342.45 77.4641C342.607 76.6943 341.188 76.4871 341.032 77.2548Z" fill="#E82542"/>
<path d="M345.112 78.3906C345.317 80.9278 344.662 83.5924 343.607 85.939C343.278 86.6715 344.655 87.0247 344.981 86.2975C345.77 84.5414 346.254 82.6921 346.462 80.817C346.55 80.0286 346.61 79.2194 346.546 78.4259C346.519 78.0974 346.257 77.8094 345.845 77.798C345.483 77.7897 345.086 78.0591 345.112 78.3906Z" fill="#E82542"/>
<path d="M362.667 83.5342C362.634 83.4928 362.603 83.4514 362.572 83.4099C362.537 83.3623 362.501 83.3136 362.466 83.2659C362.395 83.1665 362.544 83.3809 362.463 83.2607C362.44 83.2276 362.417 83.1934 362.395 83.1603C362.1 82.7231 361.835 82.2703 361.593 81.8083C360.812 80.3185 360.293 78.7365 360.057 77.0955C359.945 76.3184 358.528 76.5339 358.64 77.3109C358.991 79.7559 359.914 82.3138 361.537 84.3299C362.046 84.9619 363.177 84.1662 362.667 83.5342Z" fill="#E82542"/>
<path d="M357.767 85.0541C356.508 83.0235 355.993 80.5433 355.963 78.2258C355.959 77.8953 355.514 77.6777 355.162 77.7306C354.742 77.7948 354.541 78.1097 354.545 78.4413C354.568 80.1963 354.911 81.9191 355.518 83.5705C355.77 84.2553 356.055 84.9495 356.448 85.5825C356.868 86.259 358.191 85.7379 357.767 85.0541Z" fill="#E82542"/>
<path d="M349.613 78.7086C349.819 81.0241 350.026 83.3396 350.233 85.6551C350.264 85.9887 350.293 86.3212 350.323 86.6548C350.392 87.437 351.81 87.2194 351.74 86.4393C351.534 84.1238 351.326 81.8084 351.119 79.4929C351.089 79.1593 351.06 78.8257 351.03 78.4931C350.96 77.711 349.542 77.9285 349.613 78.7086Z" fill="#E82542"/>
<path d="M364.18 129.671L364.578 129.636C369.137 129.226 372.448 125.125 371.879 120.584C370.053 106.004 366.551 76.8499 367.092 71.7299C367.818 64.8498 374.026 55.7236 376.531 51.0025C379.036 46.2814 372.687 38.8522 371.92 38.4378C371.154 38.0234 370.049 38.6802 370.401 39.6105C370.401 39.6105 369.002 37.8649 368.335 40.0291C368.092 40.8154 367.467 39.3298 366.522 41.9882C366.198 42.9019 365.772 41.9934 365.355 43.5505C364.939 45.1076 368.694 47.6665 368.314 49.521C367.934 51.3754 361.582 53.8577 361.781 59.6366C361.981 65.4154 361.275 70.3416 361.063 71.9319C360.897 73.172 357.243 104.6 355.659 121.109C355.19 126.002 359.284 130.111 364.18 129.671Z" fill="#FF8D6B"/>
<path d="M267.591 63.5029C273.901 66.3685 276.694 73.807 273.828 80.1173C272.667 82.6763 270.752 84.6561 268.467 85.9149L269.402 90.838L264.988 87.2068C262.46 87.7413 259.746 87.5051 257.213 86.3541C250.902 83.4885 248.109 76.05 250.975 69.7396C253.842 63.4304 261.28 60.6373 267.591 63.5029Z" fill="white"/>
<path d="M262.402 76.2467V76.1732V76.1483C262.402 75.8292 262.671 75.5837 262.967 75.5837C265.274 75.5837 267.115 73.7178 267.115 71.4355C267.115 69.1034 265.274 67.2863 262.967 67.2625C261.42 67.2625 260.095 68.0726 259.382 69.349C259.235 69.5945 258.867 69.7168 258.597 69.5458C258.303 69.3738 258.229 69.0299 258.401 68.7605C259.309 67.1651 261.003 66.1094 262.967 66.1094C265.888 66.1094 268.269 68.4912 268.269 71.4365C268.269 74.1364 266.206 76.3949 263.556 76.6891V79.3154C263.556 79.6345 263.286 79.88 262.967 79.88C262.671 79.88 262.402 79.6345 262.402 79.3154V76.2467ZM262.402 82.1872C262.402 81.8681 262.671 81.5977 262.967 81.5977C263.286 81.5977 263.556 81.8681 263.556 82.1872V82.727C263.556 83.0461 263.286 83.2916 262.967 83.2916C262.671 83.2916 262.402 83.0461 262.402 82.727V82.1872Z" fill="#162A74"/>
<path d="M189.403 113.731C181.547 114.35 175.221 120.779 174.715 128.643C174.501 131.95 175.293 135.058 176.812 137.694C177.401 138.715 177.353 139.982 176.675 140.946L174.167 144.504L179.559 143.057C180.533 142.796 181.581 142.913 182.444 143.433C185.149 145.065 188.374 145.92 191.813 145.688C199.661 145.16 206.063 138.836 206.677 130.995C207.451 121.126 199.274 112.952 189.403 113.731Z" fill="white"/>
<path d="M194.925 126.026C194.743 120.17 192.102 119.965 190.416 120.606C188.71 121.253 188.438 123.001 189.524 125.301C190.146 126.62 191.834 126.726 193.161 126.578C193.334 128.375 193.365 131.067 192.542 133.693C191.336 133.197 189.642 132.786 188.797 133.901C187.403 135.741 187.346 137.407 188.792 138.413C189.953 139.22 191.783 139.669 193.07 136.979C195.307 133.097 195.221 128.567 194.925 126.026Z" fill="url(#paint4_linear_1596_2)"/>
<path opacity="0.37" d="M128.858 100.728C138.471 101.486 146.213 109.352 146.832 118.975C147.092 123.021 146.124 126.825 144.266 130.05C143.545 131.301 143.604 132.85 144.435 134.029L147.503 138.384L140.905 136.613C139.714 136.293 138.43 136.437 137.373 137.074C134.064 139.071 130.118 140.118 125.91 139.834C116.307 139.187 108.473 131.45 107.721 121.854C106.775 109.776 116.781 99.7749 128.858 100.728Z" fill="#D9E0F3"/>
<path d="M126.435 99.1883C136.048 99.9467 143.789 107.813 144.408 117.436C144.668 121.481 143.701 125.285 141.842 128.51C141.121 129.761 141.18 131.311 142.011 132.49L145.08 136.844L138.481 135.074C137.29 134.753 136.006 134.897 134.951 135.535C131.641 137.531 127.694 138.578 123.487 138.295C113.884 137.647 106.05 129.91 105.298 120.315C104.351 108.237 114.356 98.2362 126.435 99.1883Z" fill="white"/>
<path d="M124.399 118.518L114.405 112.607C114.636 112.449 114.916 112.356 115.217 112.356H134.725C135.033 112.356 135.316 112.453 135.55 112.617C134.219 113.418 131.523 115.071 125.99 118.503C125.504 118.804 124.893 118.81 124.399 118.518Z" fill="url(#paint5_linear_1596_2)"/>
<path d="M124.132 119.626C124.457 119.819 124.82 119.914 125.181 119.914C125.558 119.914 125.934 119.811 126.267 119.605C130.865 116.754 134.282 114.651 135.927 113.657C136.079 113.886 136.169 114.16 136.169 114.456V125.455C136.169 126.253 135.523 126.899 134.725 126.899H115.217C114.419 126.899 113.773 126.253 113.773 125.455V114.456C113.773 114.155 113.865 113.877 114.022 113.646L124.132 119.626Z" fill="url(#paint6_linear_1596_2)"/>
<path opacity="0.37" d="M293.757 79.8481C300.465 80.3775 305.867 85.8663 306.299 92.5807C306.481 95.4038 305.805 98.058 304.508 100.308C304.006 101.181 304.046 102.262 304.626 103.086L306.768 106.124L302.162 104.888C301.331 104.666 300.435 104.765 299.699 105.211C297.39 106.604 294.636 107.334 291.699 107.137C284.998 106.685 279.531 101.285 279.007 94.5895C278.347 86.1626 285.328 79.183 293.757 79.8481Z" fill="#D9E0F3"/>
<path d="M291.379 78.0288C298.087 78.5582 303.489 84.047 303.921 90.7624C304.102 93.5855 303.427 96.2397 302.13 98.49C301.627 99.3623 301.668 100.444 302.248 101.267L304.389 104.306L299.784 103.07C298.952 102.847 298.057 102.947 297.319 103.391C295.01 104.785 292.256 105.515 289.32 105.317C282.619 104.866 277.152 99.4659 276.628 92.7701C275.968 84.3432 282.95 77.3637 291.379 78.0288Z" fill="white"/>
<path d="M289.959 91.5177L282.984 87.3924C283.146 87.2825 283.341 87.2173 283.551 87.2173H297.164C297.379 87.2173 297.577 87.2857 297.74 87.3996C296.812 87.9591 294.931 89.1121 291.069 91.5064C290.729 91.7177 290.304 91.7208 289.959 91.5177Z" fill="url(#paint7_linear_1596_2)"/>
<path d="M289.772 92.2908C289.999 92.4254 290.252 92.4918 290.505 92.4918C290.767 92.4918 291.03 92.4192 291.262 92.2752C294.471 90.2861 296.854 88.8181 298.002 88.125C298.109 88.2845 298.171 88.4762 298.171 88.6823V96.3571C298.171 96.9134 297.721 97.3651 297.163 97.3651H283.55C282.994 97.3651 282.542 96.9145 282.542 96.3571V88.6823C282.542 88.4731 282.606 88.2783 282.716 88.1167L289.772 92.2908Z" fill="url(#paint8_linear_1596_2)"/>
<path d="M310.312 38.1982H277.973C277.084 38.1982 276.363 38.9193 276.363 39.8082V59.3546C276.363 60.2435 277.084 60.9645 277.973 60.9645H298.985C299.454 60.9645 299.899 61.1686 300.205 61.525L303.533 65.3924C303.983 65.9166 304.842 65.5976 304.842 64.9065V62.5755C304.842 61.6856 305.563 60.9656 306.452 60.9656H310.31C311.199 60.9656 311.92 60.2445 311.92 59.3556V39.8092C311.922 38.9193 311.201 38.1982 310.312 38.1982Z" fill="white"/>
<path d="M285.028 49.4036C285.028 50.4966 284.142 51.3824 283.049 51.3824C281.956 51.3824 281.07 50.4966 281.07 49.4036C281.07 48.3106 281.956 47.4248 283.049 47.4248C284.142 47.4248 285.028 48.3116 285.028 49.4036Z" fill="#162A74"/>
<path d="M295.482 49.4036C295.482 50.4966 294.596 51.3824 293.503 51.3824C292.41 51.3824 291.524 50.4966 291.524 49.4036C291.524 48.3106 292.41 47.4248 293.503 47.4248C294.597 47.4248 295.482 48.3116 295.482 49.4036Z" fill="#162A74"/>
<path d="M305.938 49.4036C305.938 50.4966 305.052 51.3824 303.959 51.3824C302.866 51.3824 301.98 50.4966 301.98 49.4036C301.98 48.3106 302.866 47.4248 303.959 47.4248C305.052 47.4248 305.938 48.3116 305.938 49.4036Z" fill="#162A74"/>
<path opacity="0.37" d="M147.686 155.104H198.927C200.336 155.104 201.479 156.246 201.479 157.655V188.627C201.479 190.036 200.336 191.178 198.927 191.178H165.634C164.891 191.178 164.184 191.503 163.7 192.065L158.426 198.193C157.713 199.023 156.35 198.518 156.35 197.423V193.729C156.35 192.32 155.207 191.177 153.798 191.177H147.685C146.276 191.177 145.133 190.035 145.133 188.626V157.654C145.134 156.246 146.277 155.104 147.686 155.104Z" fill="#D9E0F3"/>
<path d="M145.879 152.979H197.12C198.529 152.979 199.672 154.12 199.672 155.53V186.502C199.672 187.911 198.529 189.053 197.12 189.053H163.827C163.084 189.053 162.377 189.378 161.893 189.94L156.619 196.068C155.905 196.898 154.543 196.393 154.543 195.298V191.604C154.543 190.195 153.4 189.052 151.991 189.052H145.877C144.468 189.052 143.325 187.911 143.325 186.501V155.529C143.327 154.121 144.47 152.979 145.879 152.979Z" fill="white"/>
<path d="M157.411 173.744C158.883 173.744 160.077 172.551 160.077 171.079C160.077 169.607 158.883 168.413 157.411 168.413C155.939 168.413 154.746 169.607 154.746 171.079C154.746 172.551 155.939 173.744 157.411 173.744Z" fill="url(#paint9_linear_1596_2)"/>
<path d="M171.5 173.744C172.972 173.744 174.165 172.551 174.165 171.079C174.165 169.607 172.972 168.413 171.5 168.413C170.027 168.413 168.834 169.607 168.834 171.079C168.834 172.551 170.027 173.744 171.5 173.744Z" fill="url(#paint10_linear_1596_2)"/>
<path d="M185.587 173.744C187.059 173.744 188.252 172.551 188.252 171.079C188.252 169.607 187.059 168.413 185.587 168.413C184.114 168.413 182.921 169.607 182.921 171.079C182.921 172.551 184.114 173.744 185.587 173.744Z" fill="url(#paint11_linear_1596_2)"/>
</g>
<defs>
<linearGradient id="paint0_linear_1596_2" x1="244.811" y1="333.418" x2="400.512" y2="240.391" gradientUnits="userSpaceOnUse">
<stop stop-color="#5024FE"/>
<stop offset="1" stop-color="#E01CE4"/>
</linearGradient>
<linearGradient id="paint1_linear_1596_2" x1="353.447" y1="251.816" x2="368.575" y2="239.8" gradientUnits="userSpaceOnUse">
<stop stop-color="#5024FE"/>
<stop offset="1" stop-color="#E01CE4"/>
</linearGradient>
<linearGradient id="paint2_linear_1596_2" x1="298.513" y1="210.895" x2="309.627" y2="202.067" gradientUnits="userSpaceOnUse">
<stop stop-color="#5024FE"/>
<stop offset="1" stop-color="#E01CE4"/>
</linearGradient>
<linearGradient id="paint3_linear_1596_2" x1="-165.967" y1="351.44" x2="-165.556" y2="331.711" gradientUnits="userSpaceOnUse">
<stop stop-color="#5024FE"/>
<stop offset="1" stop-color="#E01CE4"/>
</linearGradient>
<linearGradient id="paint4_linear_1596_2" x1="184.698" y1="141.836" x2="200.353" y2="136.82" gradientUnits="userSpaceOnUse">
<stop stop-color="#5024FE"/>
<stop offset="1" stop-color="#E01CE4"/>
</linearGradient>
<linearGradient id="paint5_linear_1596_2" x1="105.682" y1="119.69" x2="111.673" y2="103.513" gradientUnits="userSpaceOnUse">
<stop stop-color="#5024FE"/>
<stop offset="1" stop-color="#E01CE4"/>
</linearGradient>
<linearGradient id="paint6_linear_1596_2" x1="104.534" y1="128.887" x2="122.715" y2="103.868" gradientUnits="userSpaceOnUse">
<stop stop-color="#5024FE"/>
<stop offset="1" stop-color="#E01CE4"/>
</linearGradient>
<linearGradient id="paint7_linear_1596_2" x1="276.898" y1="92.335" x2="281.078" y2="81.0465" gradientUnits="userSpaceOnUse">
<stop stop-color="#5024FE"/>
<stop offset="1" stop-color="#E01CE4"/>
</linearGradient>
<linearGradient id="paint8_linear_1596_2" x1="276.095" y1="98.7524" x2="288.781" y2="81.2935" gradientUnits="userSpaceOnUse">
<stop stop-color="#5024FE"/>
<stop offset="1" stop-color="#E01CE4"/>
</linearGradient>
<linearGradient id="paint9_linear_1596_2" x1="152.546" y1="174.544" x2="160.076" y2="168.412" gradientUnits="userSpaceOnUse">
<stop stop-color="#5024FE"/>
<stop offset="1" stop-color="#E01CE4"/>
</linearGradient>
<linearGradient id="paint10_linear_1596_2" x1="166.635" y1="174.544" x2="174.165" y2="168.412" gradientUnits="userSpaceOnUse">
<stop stop-color="#5024FE"/>
<stop offset="1" stop-color="#E01CE4"/>
</linearGradient>
<linearGradient id="paint11_linear_1596_2" x1="180.722" y1="174.544" x2="188.252" y2="168.412" gradientUnits="userSpaceOnUse">
<stop stop-color="#5024FE"/>
<stop offset="1" stop-color="#E01CE4"/>
</linearGradient>
<clipPath id="clip0_1596_2">
<rect width="438" height="351" fill="white"/>
</clipPath>
</defs>
</svg>
