<svg width="438" height="351" viewBox="0 0 438 351" fill="none" xmlns="http://www.w3.org/2000/svg">
<g opacity="0.49">
<path d="M49.4176 343.564H376.377C384.768 326.774 390.003 307.754 392.485 289.015C396.515 258.57 396.659 229.038 385.444 200.664C376.483 177.995 355.689 158.459 333.144 152.314C316.793 147.859 301.838 147.887 285.011 146.37C246.837 142.926 215.999 112.531 179.627 99.8257C134.437 84.0407 81.4897 98.5022 48.0329 134.221C14.5762 169.94 1.4259 224.863 13.1414 273.53C19.1949 298.677 32.1833 323.184 49.4176 343.564Z" fill="#BFD0F7"/>
</g>
<path d="M138.116 323.125C137.985 323.125 137.855 323.115 137.725 323.104C137.715 323.103 137.619 323.094 137.672 323.1C137.728 323.106 137.62 323.094 137.609 323.093C137.526 323.083 137.444 323.072 137.361 323.061C137.161 323.032 136.962 322.997 136.763 322.955C135.641 322.72 134.552 322.298 133.528 321.686C133.044 321.396 132.672 322.288 133.157 322.578C134.682 323.49 136.466 324.136 138.173 324.132C138.708 324.128 138.651 323.124 138.116 323.125Z" fill="#EA9632"/>
<path d="M137.722 326.354C136.003 326.642 134.15 326.338 132.491 325.736C131.973 325.549 131.81 326.531 132.324 326.717C133.566 327.168 134.854 327.4 136.143 327.437C136.686 327.453 137.24 327.449 137.778 327.357C138.001 327.32 138.182 327.12 138.167 326.831C138.152 326.578 137.946 326.316 137.722 326.354Z" fill="#EA9632"/>
<path d="M133.383 339.053C133.414 339.032 133.445 339.013 133.475 338.994C133.51 338.972 133.545 338.951 133.579 338.929C133.652 338.886 133.496 338.976 133.583 338.927C133.607 338.914 133.632 338.899 133.656 338.886C133.973 338.709 134.298 338.553 134.628 338.414C135.693 337.967 136.803 337.709 137.937 337.652C138.472 337.625 138.417 336.621 137.881 336.648C136.193 336.732 134.392 337.208 132.914 338.208C132.451 338.524 132.92 339.366 133.383 339.053Z" fill="#EA9632"/>
<path d="M132.662 335.532C134.126 334.787 135.849 334.59 137.429 334.721C137.655 334.74 137.831 334.444 137.817 334.195C137.801 333.898 137.6 333.736 137.373 333.717C136.176 333.618 134.981 333.743 133.817 334.058C133.335 334.189 132.844 334.343 132.388 334.575C131.9 334.824 132.17 335.782 132.662 335.532Z" fill="#EA9632"/>
<path d="M137.509 330.254C135.918 330.246 134.328 330.237 132.738 330.23C132.509 330.229 132.28 330.228 132.051 330.227C131.513 330.224 131.571 331.228 132.107 331.231C133.697 331.239 135.287 331.248 136.878 331.256C137.107 331.257 137.336 331.258 137.565 331.259C138.102 331.261 138.044 330.257 137.509 330.254Z" fill="#EA9632"/>
<path d="M217.735 328.544C217.604 328.545 217.475 328.537 217.344 328.527C217.334 328.526 217.237 328.519 217.291 328.523C217.347 328.527 217.239 328.518 217.228 328.517C217.145 328.509 217.062 328.499 216.98 328.49C216.78 328.466 216.581 328.435 216.383 328.4C215.263 328.199 214.177 327.832 213.158 327.297C212.675 327.043 212.297 327.835 212.78 328.089C214.298 328.887 216.077 329.448 217.783 329.433C218.321 329.429 218.27 328.54 217.735 328.544Z" fill="#EA9632"/>
<path d="M217.321 331.408C215.602 331.676 213.751 331.419 212.096 330.896C211.58 330.733 211.41 331.604 211.922 331.767C213.16 332.159 214.447 332.354 215.735 332.379C216.278 332.39 216.832 332.382 217.37 332.298C217.593 332.264 217.776 332.085 217.762 331.829C217.75 331.605 217.545 331.374 217.321 331.408Z" fill="#EA9632"/>
<path d="M212.903 342.694C212.933 342.675 212.965 342.659 212.995 342.641C213.03 342.621 213.065 342.603 213.1 342.584C213.173 342.545 213.016 342.627 213.104 342.582C213.129 342.57 213.153 342.557 213.178 342.545C213.496 342.386 213.822 342.246 214.153 342.121C215.22 341.718 216.333 341.481 217.465 341.424C218.001 341.397 217.952 340.507 217.415 340.534C215.728 340.62 213.924 341.054 212.441 341.95C211.975 342.232 212.438 342.975 212.903 342.694Z" fill="#EA9632"/>
<path d="M212.206 339.577C213.674 338.907 215.397 338.721 216.975 338.828C217.2 338.844 217.379 338.58 217.367 338.359C217.353 338.095 217.152 337.954 216.926 337.938C215.73 337.857 214.534 337.978 213.369 338.265C212.885 338.384 212.394 338.524 211.936 338.733C211.448 338.956 211.711 339.802 212.206 339.577Z" fill="#EA9632"/>
<path d="M217.083 334.868C215.494 334.871 213.904 334.875 212.314 334.878C212.086 334.878 211.857 334.879 211.628 334.879C211.091 334.88 211.142 335.77 211.677 335.769C213.267 335.766 214.857 335.763 216.446 335.759C216.675 335.759 216.904 335.758 217.133 335.758C217.67 335.757 217.619 334.867 217.083 334.868Z" fill="#EA9632"/>
<g opacity="0.37">
<path d="M373.724 333.207H357.84L358.306 311.958C362.792 308.777 365.374 303.622 366.068 298.137C366.862 291.863 365.023 285.674 361.83 280.348C360.993 278.951 360.068 277.644 359.088 276.391L359.737 246.789C361.471 245.911 362.675 244.097 362.675 241.978C362.675 239.005 360.324 236.594 357.424 236.594C356.554 236.594 355.747 236.831 355.025 237.214L346.142 231.274C346.391 230.668 346.624 230.054 346.824 229.426C348.683 223.595 347.397 217.202 343.942 212.263C340.246 206.98 334.332 203.775 328.156 202.688C324.729 202.086 321.326 202.298 317.871 202.376C314.242 202.457 310.668 202.148 307.598 199.971C304.578 197.83 302.308 194.784 299.17 192.781C296.342 190.976 293.052 189.768 289.709 189.613C285.567 189.421 281.127 190.8 278.377 193.925C278.366 193.9 278.351 193.877 278.339 193.852C278.095 193.348 277.825 192.857 277.538 192.374C277.483 192.282 277.432 192.187 277.375 192.096C277.094 191.64 276.788 191.199 276.468 190.766C276.385 190.654 276.306 190.541 276.221 190.43C275.91 190.025 275.577 189.634 275.233 189.251C275.125 189.132 275.022 189.011 274.912 188.894C274.569 188.529 274.207 188.179 273.835 187.837C269.798 184.116 264.168 181.797 257.926 181.797C245.718 181.797 235.818 190.636 235.696 201.578C235.696 204.491 245.65 206.852 257.929 206.852C270.111 206.852 279.992 204.527 280.147 201.646L279.87 231.58C279.085 231.715 278.468 232.393 278.426 233.242C278.377 234.225 279.114 235.062 280.072 235.111C281.031 235.161 281.847 234.406 281.896 233.424C281.938 232.56 281.372 231.809 280.583 231.607L280.873 200.193L296.104 202.732C296.101 202.794 296.087 202.852 296.087 202.914C296.087 205.099 297.814 206.87 299.945 206.87C301.013 206.87 301.979 206.424 302.678 205.705L344.002 233.334C342.151 237.037 339.816 240.519 338.62 244.526C334.54 258.188 348.773 266.109 356.272 274.645L354.985 333.207H337.445C336.996 333.207 336.631 333.581 336.631 334.042V335.224C336.631 335.685 336.996 336.059 337.445 336.059H373.722C374.172 336.059 374.536 335.685 374.536 335.224V334.042C374.54 333.581 374.174 333.207 373.724 333.207ZM365.146 293.946C365.437 300.177 363.25 306.708 358.337 310.562L359.049 278.132C362.387 282.767 364.876 288.151 365.146 293.946ZM280.152 201.326C280.142 200.9 280.115 200.478 280.075 200.058L280.163 200.073L280.152 201.326ZM303.801 202.962C303.801 202.945 303.806 202.93 303.806 202.913C303.806 200.728 302.079 198.958 299.948 198.958C298.907 198.958 297.967 199.385 297.273 200.072L279.518 197.007C279.411 196.616 279.294 196.23 279.163 195.85C279.145 195.799 279.13 195.747 279.113 195.696C279.034 195.474 278.945 195.255 278.858 195.037C281.431 191.771 286.015 190.476 290.067 190.754C293.25 190.971 296.364 192.233 299.02 194.01C301.693 195.798 303.74 198.341 306.251 200.336C311.558 204.55 317.825 203.154 324.043 203.374C330.465 203.602 337.04 206.028 341.478 210.925C345.753 215.642 347.76 222.489 345.896 228.736C345.701 229.391 345.469 230.028 345.221 230.658L303.801 202.962ZM348.102 265.204C342.949 260.422 337.706 254.049 339.278 246.387C340.209 241.85 342.834 238.013 344.909 233.939L352.903 239.283C352.451 240.078 352.173 240.991 352.173 241.977C352.173 244.758 354.237 247.018 356.875 247.304L356.307 273.146C353.73 270.365 350.911 267.811 348.102 265.204Z" fill="#D9E0F3"/>
</g>
<path d="M283.002 200.53C284.827 195.303 290.658 193.243 295.671 193.585C298.855 193.802 301.969 195.064 304.624 196.841C307.297 198.629 309.344 201.173 311.856 203.167C317.162 207.381 323.429 205.985 329.648 206.206C336.069 206.433 342.645 208.859 347.083 213.756C351.358 218.473 353.364 225.32 351.501 231.567C349.828 237.176 345.904 241.749 344.229 247.358C340.121 261.113 354.579 269.048 362.036 277.651C366.625 282.947 370.416 289.544 370.754 296.779C371.06 303.322 368.639 310.204 363.191 313.96C362.611 314.36 363.157 315.329 363.742 314.926C368.34 311.757 370.972 306.527 371.676 300.969C372.47 294.695 370.631 288.505 367.438 283.18C363.84 277.178 358.744 272.71 353.708 268.037C348.555 263.254 343.313 256.881 344.885 249.22C346.15 243.056 350.541 238.189 352.431 232.259C354.29 226.428 353.004 220.035 349.549 215.098C345.852 209.813 339.939 206.61 333.763 205.523C330.336 204.92 326.933 205.132 323.478 205.21C319.849 205.292 316.274 204.982 313.205 202.805C310.185 200.664 307.914 197.618 304.777 195.615C301.948 193.811 298.659 192.602 295.316 192.447C289.87 192.195 283.897 194.651 281.948 200.234C281.712 200.912 282.767 201.205 283.002 200.53Z" fill="url(#paint0_linear_1570_1574)"/>
<path d="M363.416 341.112L360.564 341.044L362.597 244.849L304.545 206.036L284.33 202.667L284.787 199.781L305.851 203.417L365.483 243.289L363.416 341.112Z" fill="#FFB854"/>
<path d="M363.031 250.194C365.932 250.194 368.283 247.783 368.283 244.809C368.283 241.836 365.932 239.425 363.031 239.425C360.131 239.425 357.78 241.836 357.78 244.809C357.78 247.783 360.131 250.194 363.031 250.194Z" fill="url(#paint1_linear_1570_1574)"/>
<path d="M305.554 209.701C307.685 209.701 309.412 207.93 309.412 205.746C309.412 203.561 307.685 201.79 305.554 201.79C303.423 201.79 301.696 203.561 301.696 205.746C301.696 207.93 303.423 209.701 305.554 209.701Z" fill="url(#paint2_linear_1570_1574)"/>
<path d="M263.454 201.79C273.203 201.79 281.63 202.884 285.769 204.478C285.687 193.505 275.767 184.631 263.534 184.631C251.326 184.631 241.425 193.469 241.303 204.41C245.502 202.853 253.84 201.79 263.454 201.79Z" fill="#FFB854"/>
<path d="M279.084 190.337C273.518 193.575 267.58 195.072 261.273 196.167C255.996 197.083 251.356 197.991 247.14 201.526C246.149 202.357 245.079 203.033 243.983 203.63C248.571 202.513 255.562 201.789 263.455 201.789C273.204 201.789 281.63 202.883 285.769 204.477C285.728 198.936 283.173 193.935 279.084 190.337Z" fill="#F7A94B"/>
<path d="M285.769 204.411C285.769 207.323 275.815 209.685 263.536 209.685C251.257 209.685 241.303 207.324 241.303 204.411C241.303 201.497 251.257 199.136 263.536 199.136C275.815 199.137 285.769 201.498 285.769 204.411Z" fill="white"/>
<path d="M285.474 234.944L285.78 201.738L286.494 201.747L286.187 234.953L285.474 234.944Z" fill="#FFB854"/>
<path d="M287.504 236.256C287.455 237.238 286.639 237.995 285.68 237.944C284.722 237.894 283.985 237.057 284.034 236.074C284.083 235.092 284.899 234.336 285.857 234.386C286.816 234.437 287.552 235.274 287.504 236.256Z" fill="#FFB854"/>
<path d="M379.33 343.508H343.054C342.604 343.508 342.239 343.143 342.239 342.694V341.471C342.239 341.021 342.604 340.657 343.054 340.657H379.33C379.78 340.657 380.145 341.021 380.145 341.471V342.694C380.145 343.143 379.78 343.508 379.33 343.508Z" fill="#F7A94B"/>
<path d="M124.428 202.951C122.421 207.392 122.019 212.487 122.77 217.321C123.415 221.471 124.89 225.485 127.076 229.04C127.306 229.414 127.553 229.834 127.466 230.267C127.384 230.677 127.028 230.96 126.689 231.193C122.077 234.372 116.265 235.318 110.725 234.851C105.187 234.385 99.8389 232.608 94.5978 230.712C94.3398 230.619 94.0331 230.459 94.0342 230.178C94.0352 230.032 94.1253 229.904 94.2103 229.787C97.6954 225.007 99.7416 219.139 100.003 213.177C100.263 207.215 98.7366 201.183 95.6825 196.103" fill="#FF8D6B"/>
<path d="M100.004 213.178C100.004 213.178 100.621 208.832 98.2661 201.6C98.2661 201.6 108.538 210.673 119.411 210.675C119.411 210.675 115.94 216.16 100.004 213.178Z" fill="#EA5F44"/>
<path d="M88.8092 226.884C88.8092 226.884 94.6098 224.233 95.5785 216.853C95.7981 215.184 97.464 214.146 99.0118 214.706C104.192 216.581 114.534 219.397 123.967 216.36C125.309 215.928 126.637 216.987 126.503 218.421C126.147 222.24 126.537 228.172 132.086 229.387C132.086 229.387 146.512 233.938 150.063 236.44C150.063 236.44 152.061 263.858 155.389 277.851C158.718 291.844 160.272 305.527 157.83 324.113C155.389 342.699 165.062 338.214 164.063 345.723C163.064 353.232 100.137 350.394 69.8389 347.288C69.8389 347.288 67.9471 347.704 71.2758 333.598C74.6045 319.49 71.2758 248.272 66.6148 241.446L63.2861 234.619C63.2861 234.619 85.984 228.458 88.8092 226.884Z" fill="#FFB854"/>
<path d="M148.605 236.511C148.605 236.511 158.206 239.62 160.77 247.66C163.681 256.787 166.845 313.872 178.414 317.115C188.478 319.936 214.037 323.291 224.24 325.352C226.222 325.753 227.614 327.574 227.51 329.642L226.997 339.955C226.914 341.627 225.629 342.969 223.999 343.074C210.851 343.917 156.57 346.974 153.279 340.152C149.535 332.388 148.605 236.511 148.605 236.511Z" fill="#FFB854"/>
<path d="M75.5162 265.261C75.4012 263.312 75.9358 261.333 77.1914 259.888C77.812 259.174 78.5672 258.664 79.4147 258.807C81.7861 259.207 80.8516 273.915 81.4266 279.111C82.0016 284.306 81.755 301.333 91.5432 302.292C101.33 303.252 124.325 306.928 128.133 309.007C131.941 311.085 142.289 310.446 143.366 304.05C144.444 297.655 142.145 259.206 144.659 259.446C147.175 259.686 151.27 299.014 151.126 304.691C150.982 310.366 151.844 319.399 156.012 322.916C160.18 326.433 78.9837 324.035 78.9837 324.035L75.5162 265.261Z" fill="#EA9632"/>
<path d="M135.518 321.611C139.069 319.842 142.644 318.065 146.442 316.954C151.665 315.428 157.155 315.209 162.583 315C164.318 314.934 166.068 314.867 167.779 315.17C169.328 315.443 170.815 316.014 172.232 316.709C176.356 318.733 179.898 321.79 183.392 324.814C183.746 325.122 184.125 325.657 183.813 326.01C183.722 326.111 183.592 326.164 183.463 326.206C181.852 326.724 180.166 325.863 178.629 325.145C174.656 323.287 170.264 322.248 165.911 322.596C161.558 322.943 157.255 324.746 154.207 327.95C153.263 328.942 152.432 330.068 151.317 330.85C150.448 331.46 149.442 331.834 148.421 332.1C143.252 333.451 137.808 332.141 132.669 330.669" fill="#FF8D6B"/>
<path d="M64.2473 234.357C64.2473 234.357 70.5306 235.928 74.0821 255.382C77.6325 274.836 73.8604 307.715 84.5126 309.535C94.2666 311.202 123.091 313.25 135.127 317.427C136.849 318.024 137.999 319.67 137.999 321.533V333.164C137.999 335.511 136.252 337.466 133.971 337.669C119.202 338.984 68.1717 343.017 54.5512 337.295C38.5719 330.583 51.2226 257.658 51.2226 257.658C51.2226 257.658 55.5023 235.428 64.2473 234.357Z" fill="#FFB854"/>
<path d="M96.9038 218.243C96.8903 218.5 96.8551 218.756 96.822 219.011C96.8189 219.031 96.7909 219.221 96.8075 219.114C96.824 219.006 96.7909 219.218 96.7867 219.239C96.7588 219.401 96.7298 219.564 96.6987 219.726C96.622 220.116 96.534 220.506 96.4345 220.892C95.8709 223.078 94.9603 225.178 93.6994 227.131C93.1027 228.056 94.7344 228.887 95.3312 227.962C97.2084 225.056 98.6153 221.608 98.7945 218.242C98.8494 217.183 96.9597 217.186 96.9038 218.243Z" fill="#EA9632"/>
<path d="M102.916 219.371C103.269 222.791 102.496 226.412 101.185 229.619C100.776 230.618 102.601 231.049 103.007 230.057C103.988 227.659 104.564 225.143 104.776 222.604C104.865 221.536 104.917 220.442 104.806 219.371C104.76 218.928 104.404 218.548 103.861 218.548C103.385 218.548 102.869 218.926 102.916 219.371Z" fill="#EA9632"/>
<path d="M126.261 229.316C126.226 229.255 126.194 229.192 126.161 229.129C126.123 229.058 126.088 228.986 126.052 228.915C125.978 228.768 126.13 229.084 126.048 228.907C126.025 228.857 126.001 228.808 125.978 228.758C125.681 228.115 125.425 227.456 125.201 226.79C124.479 224.641 124.115 222.423 124.134 220.183C124.142 219.124 122.254 219.123 122.244 220.183C122.217 223.521 122.914 227.126 124.628 230.147C125.169 231.097 126.799 230.264 126.261 229.316Z" fill="#EA9632"/>
<path d="M119.577 230.352C118.339 227.384 118.16 223.967 118.58 220.865C118.64 220.423 118.103 220.042 117.635 220.042C117.075 220.042 116.751 220.422 116.691 220.865C116.372 223.214 116.478 225.585 116.941 227.914C117.134 228.881 117.369 229.866 117.755 230.79C118.167 231.777 119.994 231.351 119.577 230.352Z" fill="#EA9632"/>
<path d="M110.21 220.219C110.02 223.354 109.831 226.489 109.642 229.623C109.615 230.074 109.587 230.525 109.56 230.977C109.496 232.035 111.386 232.032 111.45 230.977C111.639 227.842 111.829 224.708 112.018 221.573C112.045 221.121 112.073 220.67 112.099 220.219C112.164 219.16 110.274 219.163 110.21 220.219Z" fill="#EA9632"/>
<path d="M92.9812 171.376C92.9812 171.376 89.6909 187.45 94.2473 199.87C98.8047 212.29 90.9869 221.794 90.9869 221.794C90.9869 221.794 94.1146 209.748 89.3801 201.367C84.6445 192.987 84.0218 183.314 85.407 179.121C86.7901 174.929 92.9812 171.376 92.9812 171.376Z" fill="#5E1212"/>
<path d="M125.754 170.83C125.754 170.83 132.901 185.53 131.553 198.728C130.205 211.925 140.111 219.096 140.111 219.096C140.111 219.096 134.116 208.251 136.631 198.915C139.147 189.58 137.366 180.059 134.992 176.361C132.62 172.665 125.754 170.83 125.754 170.83Z" fill="#5E1212"/>
<path d="M130.981 181.671C131.203 180.13 131.923 178.669 133 177.571C133.727 176.832 134.846 176.239 135.742 176.746C136.44 177.14 136.691 178.031 136.814 178.838C137.034 180.28 137.051 181.776 136.655 183.178C136.26 184.58 135.421 185.883 134.201 186.635C133.554 187.035 132.783 187.274 132.038 187.142C131.293 187.01 130.597 186.452 130.432 185.697" fill="#FF8D6B"/>
<path d="M91.8887 189.184C91.6815 188.489 91.1283 187.945 90.4963 187.617C89.8644 187.288 89.1557 187.152 88.4533 187.054C87.9312 186.982 87.3873 186.931 86.8889 187.103C86.0032 187.41 85.4572 188.384 85.4002 189.342C85.3432 190.298 85.6893 191.233 86.1223 192.083C86.9667 193.741 88.1881 195.228 89.7618 196.176C90.4684 196.602 91.2588 196.919 92.0783 196.938C92.8978 196.956 93.7494 196.644 94.2674 195.993" fill="#FF8D6B"/>
<path d="M90.912 170.74C89.0348 176.359 90.3018 182.521 91.7066 188.283C92.2246 190.409 92.7633 192.538 93.5839 194.561C96.0361 200.608 99.3845 205.86 104.8 209.331C107.458 211.036 111.925 212.012 115.059 211.959C118.533 211.901 122.035 210.215 124.473 207.678C127.686 204.336 129.391 200.835 130.16 197.701C131.903 190.593 131.923 185.493 131.455 178.18C130.987 170.866 129.553 161.798 124.71 156.407C122.456 153.899 119.498 151.742 116.173 151.682" fill="#FF8D6B"/>
<path d="M103.321 143.21C102.831 150.606 96.7254 156.203 89.6857 155.713C82.646 155.222 78.616 149.186 79.106 141.791C79.5971 134.395 84.2726 130.697 91.3123 131.188C98.3519 131.678 103.811 135.814 103.321 143.21Z" fill="#5E1212"/>
<path d="M126.774 151.489C123.938 146.752 110.799 135.395 96.2383 139.23C78.3568 143.94 77.2731 171.439 86.6583 181.667C86.7743 181.793 86.8748 181.902 86.9857 182.022C87.0095 183.346 87.0499 184.158 87.0499 184.158C87.5275 183.998 87.9875 183.804 88.4382 183.594C92.433 187.885 90.6304 185.63 88.7946 183.427C97.9456 178.843 101.456 164.417 101.456 164.417C102.302 170.716 100.591 177.449 100.591 177.449C108.372 171.415 110.843 164.082 111.57 159.124C118.114 172.536 133.957 173.119 133.957 173.119C133.957 173.119 134.475 157.434 126.774 151.489ZM86.706 180.951L86.9701 180.51C86.9712 180.774 86.9722 181.027 86.9753 181.267C86.8085 181.071 86.706 180.951 86.706 180.951Z" fill="#5E1212"/>
<path d="M111.507 197.27C113.88 196.54 116.254 195.809 118.627 195.079C119.274 194.88 119.936 194.679 120.61 194.708C120.707 194.712 120.808 194.723 120.884 194.784C121.02 194.891 121.016 195.103 120.99 195.278C120.696 197.279 119.246 199.092 117.346 199.646C115.447 200.199 112.518 199.009 111.507 197.27Z" fill="white"/>
<path d="M118.621 173.329C120.514 172.165 123.899 170.837 125.835 172.29C126.767 172.989 126.841 171.998 125.912 171.301C123.457 169.46 120.245 170.197 117.824 171.685C117.41 171.94 117.194 172.446 117.421 172.915C117.623 173.332 118.205 173.585 118.621 173.329Z" fill="#5E1212"/>
<path d="M103.571 176.469C101.413 175.995 97.7926 175.857 96.4168 177.873C95.7537 178.844 95.3735 177.929 96.0324 176.962C97.776 174.407 101.049 174.042 103.808 174.65C104.28 174.753 104.645 175.162 104.576 175.681C104.517 176.142 104.046 176.574 103.571 176.469Z" fill="#5E1212"/>
<path d="M114.262 178.217C114.642 180.597 115.588 182.852 117 184.782C117.34 185.247 117.708 185.69 118.101 186.109C118.318 186.339 118.542 186.562 118.773 186.776C118.825 186.825 119.034 186.959 119.049 187.028C119.072 187.135 119.024 187.121 118.948 187.221C118.613 187.651 118.015 187.964 117.546 188.204C116.917 188.525 116.256 188.74 115.564 188.866C114.997 188.968 115.175 189.869 115.743 189.765C117.035 189.531 118.323 188.984 119.328 188.105C119.687 187.791 120.211 187.353 120.015 186.807C119.909 186.511 119.601 186.318 119.384 186.115C119.133 185.88 118.891 185.634 118.659 185.381C116.797 183.351 115.578 180.781 115.139 178.035C115.046 177.451 114.169 177.633 114.262 178.217Z" fill="#EA5F44"/>
<path d="M105.702 182.184C105.628 183.293 104.876 184.145 104.022 184.085C103.167 184.026 102.534 183.078 102.607 181.968C102.681 180.858 103.433 180.007 104.288 180.067C105.142 180.126 105.775 181.074 105.702 182.184Z" fill="#3E1D15"/>
<path d="M124.916 179.491C124.842 180.601 124.09 181.452 123.235 181.392C122.381 181.333 121.748 180.385 121.821 179.276C121.895 178.166 122.647 177.314 123.502 177.375C124.356 177.434 124.989 178.382 124.916 179.491Z" fill="#3E1D15"/>
<path opacity="0.5" d="M107.269 192.255C107.693 194.276 105.884 196.39 103.23 196.974C100.576 197.558 98.08 196.394 97.6563 194.371C97.2326 192.349 99.0414 190.237 101.696 189.652C104.351 189.069 106.846 190.234 107.269 192.255Z" fill="#EA5F44"/>
<path opacity="0.5" d="M131.579 187.342C132.002 189.363 130.357 191.44 127.905 191.98C125.453 192.52 123.121 191.319 122.698 189.298C122.274 187.276 123.918 185.2 126.372 184.66C128.823 184.119 131.155 185.321 131.579 187.342Z" fill="#EA5F44"/>
<path d="M131 179.606C131.604 185.919 134.11 190.834 136.598 190.584C139.085 190.333 140.612 185.013 140.008 178.7C139.404 172.387 136.898 167.472 134.41 167.722C131.922 167.972 130.395 173.293 131 179.606Z" fill="#0F3060"/>
<path opacity="0.26" d="M133.844 179.319C134.216 183.207 135.76 186.235 137.292 186.08C138.824 185.926 139.765 182.649 139.393 178.761C139.021 174.873 137.478 171.845 135.945 172C134.413 172.154 133.472 175.431 133.844 179.319Z" fill="white"/>
<path d="M83.2368 178.603C83.1229 178.049 80.4997 164.94 85.7336 156.276C90.521 148.351 99.2722 138.58 119.892 145.197C120.433 145.344 134.177 149.36 136.198 171.052L133.869 171.352C132.024 151.534 119.781 147.868 119.26 147.722C100.075 141.563 92.0429 150.48 87.6678 157.72C83.0017 165.444 85.4912 177.864 85.5171 177.989L83.2368 178.603Z" fill="#D9E0F3"/>
<path d="M92.6691 185.361C93.7817 192.026 90.9161 198.09 86.2707 198.905C81.6242 199.72 76.9559 194.978 75.8443 188.312C74.7316 181.646 77.5972 175.584 82.2427 174.768C86.8892 173.954 91.5574 178.697 92.6691 185.361Z" fill="#0F3060"/>
<path d="M90.3656 185.765C91.328 191.533 88.8489 196.78 84.8281 197.486C80.8074 198.191 76.768 194.088 75.8055 188.319C74.8431 182.552 77.3222 177.304 81.343 176.6C85.3637 175.894 89.4031 179.998 90.3656 185.765Z" fill="#D9E0F3"/>
<path d="M133.303 171.671C133.707 169.225 136.003 167.535 138.378 168.005C139.885 168.303 141.383 169.096 142.125 170.928C143.709 174.836 145 185.611 139.48 188.907C138.012 189.785 136.101 189.161 135.279 187.636C133.821 184.934 131.978 179.68 133.303 171.671Z" fill="#D9E0F3"/>
<path d="M108.807 205.339C89.2325 204.684 82.4964 192.968 82.2188 192.47L83.9499 191.454C84.0131 191.568 90.4747 202.679 108.871 203.294L108.807 205.339Z" fill="#D9E0F3"/>
<path d="M116.509 204.526C116.509 206.352 114.469 207.833 111.953 207.833C109.436 207.833 107.396 206.352 107.396 204.526C107.396 202.699 109.436 201.219 111.953 201.219C114.469 201.219 116.509 202.699 116.509 204.526Z" fill="#0F3060"/>
<path d="M240.989 338.693H197.066C196.468 338.693 195.983 339.178 195.983 339.776V343.202C195.983 343.799 196.468 344.284 197.066 344.284H240.989C241.586 344.284 242.071 343.799 242.071 343.202V339.776C242.071 339.178 241.586 338.693 240.989 338.693Z" fill="#D9E0F3"/>
<path d="M276.779 318.674H145.093C143.762 318.674 142.684 317.596 142.684 316.264V219.728C142.684 218.397 143.762 217.318 145.093 217.318H276.779C278.11 217.318 279.189 218.397 279.189 219.728V316.264C279.189 317.596 278.111 318.674 276.779 318.674Z" fill="#C4CEEE"/>
<path d="M280.824 318.674H149.138C147.807 318.674 146.728 317.596 146.728 316.264V219.728C146.728 218.397 147.807 217.318 149.138 217.318H280.824C282.154 217.318 283.234 218.397 283.234 219.728V316.264C283.234 317.596 282.155 318.674 280.824 318.674Z" fill="#B1BFDD"/>
<path opacity="0.2" d="M165.903 318.674L247.173 217.319H273.119L231.527 318.674H165.903Z" fill="#EEF1FA"/>
<path d="M223.865 263.849C223.865 267.086 221.305 269.71 218.148 269.71C214.991 269.71 212.431 267.086 212.431 263.849C212.431 260.611 214.991 257.987 218.148 257.987C221.305 257.987 223.865 260.611 223.865 263.849Z" fill="#EEF1FA"/>
<path d="M205.659 295.8L198.974 312.211H210.935L205.659 295.8Z" fill="#C4CEEE"/>
<path d="M223.865 302.263L236.443 344.284H208.825L205.659 302.263H223.865Z" fill="#D9E0F3"/>
<path d="M398.613 350.406H5.20426C2.51478 350.406 0.333984 349.111 0.333984 347.512V346.458C0.333984 344.86 2.51478 343.564 5.20426 343.564H398.614C401.303 343.564 403.484 344.86 403.484 346.458V347.512C403.483 349.111 401.303 350.406 398.613 350.406Z" fill="url(#paint3_linear_1570_1574)"/>
<path d="M364.94 140.419C395.767 140.314 423.666 121.147 433.818 92.0384C434.484 90.129 435.065 88.2041 435.555 86.273C441.442 63.0892 434.834 36.9248 418.023 19.9094C401.211 2.89402 374.607 -3.99544 351.899 3.52391C333.623 9.57627 322.6 26.8548 303.418 28.4948C294.848 29.2283 287.634 29.7494 279.285 31.9613C267.504 35.0828 257.191 45.2077 251.685 56.0796C247.16 65.0162 242.919 79.1463 244.943 93.6494C244.969 93.8379 244.996 94.0265 245.024 94.2151C248.94 121.018 272.207 140.733 299.293 140.641L364.94 140.419Z" fill="#BFD0F7"/>
<path d="M357.642 44.8681C357.642 44.8681 358.325 34.7794 364.636 35.3399C370.947 35.9014 358.598 55.7327 357.642 44.8681Z" stroke="#162A74" stroke-miterlimit="10"/>
<path d="M368.179 35.2456C368.179 35.2456 367.292 52.3201 379.144 55.9627C390.996 59.6053 397.831 69.9633 393.846 82.2172C393.846 82.2172 356.368 85.6495 355.979 62.9702C355.591 40.292 368.179 35.2456 368.179 35.2456Z" fill="#5E1212"/>
<path d="M343.989 59.6239C343.989 59.6239 344.37 73.4474 340.229 80.4829C340.229 80.4829 352.028 85.1615 363.566 78.4109C363.566 78.4109 355.344 58.4252 359.403 46.6914" fill="#FF8D6B"/>
<path d="M343.823 66.3287C343.823 66.3287 350.085 63.9117 353.182 56.2764L343.374 60.4173C343.374 60.4173 343.808 64.0454 343.823 66.3287Z" fill="#EA5F44"/>
<path d="M331.16 21.6129C331.16 21.6129 328.831 22.6354 326.978 29.701C325.126 36.7666 326.986 46.4875 320.1 56.6414C320.1 56.6414 332.536 55.0656 334.67 36.3035C336.803 17.5404 331.16 21.6129 331.16 21.6129Z" fill="#5E1212"/>
<path d="M334.015 24.9229C334.015 24.9229 327.917 32.1594 328.78 39.9968C329.643 47.8342 332.065 58.359 338.908 63.3028C338.908 63.3028 342.228 66.2078 356.229 55.2955C370.23 44.3832 360.583 28.0837 354.008 24.2722C347.432 20.4618 338.522 19.6123 334.015 24.9229Z" fill="#FF8D6B"/>
<path d="M358.862 45.0626C358.862 45.0626 334.64 41.5713 331.865 25.537C329.091 9.50267 357.859 16.6024 364.492 22.5243C371.126 28.4451 370.005 45.4977 358.862 45.0626Z" fill="#5E1212"/>
<path d="M342.008 23.0641C342.008 23.0641 342.664 6.03836 357.735 2.96453C372.807 -0.10931 375.713 25.4262 350.219 26.9761" fill="#5E1212"/>
<path opacity="0.5" d="M347.006 48.1187C347.269 49.4365 346.036 50.7947 344.252 51.1511C342.468 51.5075 340.809 50.7284 340.546 49.4106C340.282 48.0928 341.515 46.7356 343.299 46.3782C345.083 46.0208 346.743 46.8009 347.006 48.1187Z" fill="#EA5F44"/>
<path d="M334.813 43.3138C334.873 45.0989 334.494 46.8746 333.721 48.4846C333.535 48.872 333.326 49.2491 333.092 49.6107C332.965 49.8096 332.83 50.0044 332.688 50.194C332.656 50.2364 332.521 50.3649 332.518 50.4177C332.516 50.4985 332.551 50.482 332.622 50.5421C332.933 50.8052 333.423 50.944 333.807 51.0487C334.322 51.1885 334.844 51.2476 335.378 51.2362C335.815 51.2269 335.812 51.9065 335.375 51.9158C334.379 51.9365 333.342 51.7293 332.468 51.2403C332.155 51.0652 331.702 50.8249 331.769 50.3991C331.806 50.1691 332.007 49.9826 332.139 49.8034C332.293 49.5951 332.437 49.3817 332.573 49.1631C333.666 47.4144 334.203 45.3682 334.135 43.3107C334.118 42.8735 334.798 42.8766 334.813 43.3138Z" fill="#EA5F44"/>
<path d="M339.409 38.8879C340.964 38.2643 343.655 37.6996 344.936 38.9936C345.554 39.6162 345.724 38.9004 345.109 38.2798C343.486 36.6398 340.992 36.7931 339.005 37.5898C338.665 37.7266 338.443 38.0705 338.558 38.4404C338.661 38.7709 339.067 39.0257 339.409 38.8879Z" fill="#5E1212"/>
<path d="M342.819 42.8898C342.86 43.7124 342.368 44.4055 341.719 44.4376C341.069 44.4708 340.51 43.8305 340.467 43.009C340.426 42.1864 340.918 41.4933 341.568 41.4601C342.217 41.428 342.777 42.0672 342.819 42.8898Z" fill="#3E1D15"/>
<path d="M331.931 44.0698C332.025 44.8872 331.578 45.6114 330.932 45.6849C330.287 45.7585 329.687 45.1566 329.593 44.3392C329.498 43.5217 329.945 42.7976 330.591 42.724C331.237 42.6494 331.837 43.2524 331.931 44.0698Z" fill="#3E1D15"/>
<path d="M331.538 40.1686C330.136 40.035 327.947 40.2546 327.619 41.7288C327.461 42.4395 327.011 41.8563 327.168 41.1497C327.584 39.2807 329.443 38.7524 331.234 38.9233C331.541 38.9523 331.858 39.1958 331.944 39.5511C332.022 39.8682 331.847 40.1987 331.538 40.1686Z" fill="#5E1212"/>
<path d="M334.114 54.2364C335.515 54.0489 336.916 53.8614 338.316 53.6749C338.698 53.6242 339.088 53.5734 339.465 53.6501C339.519 53.6615 339.575 53.676 339.612 53.7164C339.68 53.7878 339.659 53.9039 339.629 53.9971C339.287 55.0704 338.311 55.9345 337.193 56.0671C336.075 56.1997 334.531 55.2828 334.114 54.2364Z" fill="white"/>
<path d="M372.605 40.4587L364.417 35.4423C363.474 34.8642 362.237 35.2206 361.744 36.2131L351.145 57.6253C350.676 58.5743 351.08 59.7233 352.04 60.1698L360.968 64.3148C361.904 64.7489 363.014 64.3511 363.46 63.4218L373.319 42.8809C373.737 42.0096 373.429 40.9643 372.605 40.4587Z" fill="#D9E0F3"/>
<path d="M365.614 46.1887C366.438 46.1887 367.105 45.5212 367.105 44.6979C367.105 43.8745 366.438 43.207 365.614 43.207C364.791 43.207 364.124 43.8745 364.124 44.6979C364.124 45.5212 364.791 46.1887 365.614 46.1887Z" fill="#C4CEEE"/>
<path d="M343.957 75.8924C346.598 77.2196 351.877 78.641 359.188 74.6534C360.051 74.183 361.009 73.9893 361.955 74.0639C366.893 74.4524 382.418 75.8106 390.137 78.0525C391.982 78.5881 393.386 80.1763 393.847 82.2183C395.992 91.7154 402.39 121.467 403.237 141.829C403.38 145.266 400.885 148.22 397.758 148.302C381.611 148.723 334.683 149.944 317.749 150.385C314.466 150.471 311.964 147.355 312.415 143.756L319.255 89.1067C319.519 86.9933 320.774 85.1554 322.555 84.2768L340.578 76.0654C342.015 75.3547 342.559 75.189 343.957 75.8924Z" fill="#F53C4E"/>
<path d="M396.859 96.4293C397.015 104.802 395.739 113.463 394.645 120.686C393.643 127.308 391.805 134.59 386.841 139.422C379.835 146.242 369.787 144.119 361.021 145.04C349.35 146.267 327.804 152.32 319.425 140.233C314.412 133.002 317.431 125.113 319.244 117.391C321.133 109.34 320.078 100.509 318.89 92.0107L312.414 143.755C311.963 147.354 314.465 150.47 317.748 150.384C334.681 149.943 381.609 148.722 397.757 148.301C400.884 148.219 403.379 145.266 403.236 141.828C402.659 127.926 399.492 109.651 396.859 96.4293Z" fill="#E82542"/>
<path d="M365.212 115.84L366.424 92.9202C366.424 92.9202 373.076 90.7456 374.413 97.605C375.752 104.464 378.846 114.334 382.443 121.027C386.04 127.719 382.945 138.008 370.398 138.928C357.851 139.848 344.409 136.562 350.949 120.023C357.488 103.484 362.227 94.928 362.227 94.928" fill="#E82542"/>
<path d="M341.032 77.2475C340.993 77.434 340.94 77.6174 340.887 77.8007C340.883 77.8152 340.841 77.9509 340.865 77.8753C340.889 77.7966 340.841 77.9499 340.836 77.9644C340.798 78.0804 340.758 78.1954 340.717 78.3104C340.617 78.5881 340.509 78.8637 340.392 79.1351C339.734 80.6736 338.823 82.1105 337.666 83.4014C337.118 84.0126 338.253 84.801 338.801 84.1908C340.524 82.2701 341.953 79.9018 342.45 77.4568C342.607 76.687 341.188 76.4798 341.032 77.2475Z" fill="#E82542"/>
<path d="M345.112 78.3833C345.317 80.9205 344.662 83.5851 343.607 85.9317C343.278 86.6641 344.655 87.0174 344.981 86.2901C345.77 84.5341 346.254 82.6848 346.462 80.8096C346.55 80.0212 346.61 79.2121 346.546 78.4185C346.519 78.0901 346.257 77.8021 345.845 77.7907C345.483 77.7824 345.086 78.0518 345.112 78.3833Z" fill="#E82542"/>
<path d="M362.667 83.5269C362.634 83.4855 362.603 83.444 362.572 83.4026C362.537 83.3549 362.501 83.3062 362.466 83.2586C362.395 83.1591 362.544 83.3736 362.463 83.2534C362.44 83.2203 362.417 83.1861 362.395 83.1529C362.1 82.7157 361.835 82.263 361.593 81.8009C360.812 80.3111 360.293 78.7292 360.057 77.0881C359.945 76.3111 358.528 76.5266 358.64 77.3036C358.991 79.7486 359.914 82.3065 361.537 84.3226C362.046 84.9545 363.177 84.1589 362.667 83.5269Z" fill="#E82542"/>
<path d="M357.767 85.0468C356.508 83.0162 355.993 80.536 355.963 78.2185C355.959 77.888 355.514 77.6704 355.162 77.7232C354.742 77.7875 354.541 78.1024 354.545 78.4339C354.568 80.1889 354.911 81.9118 355.518 83.5632C355.77 84.248 356.055 84.9421 356.448 85.5751C356.868 86.2517 358.191 85.7305 357.767 85.0468Z" fill="#E82542"/>
<path d="M349.613 78.7013C349.819 81.0168 350.026 83.3323 350.233 85.6477C350.264 85.9813 350.293 86.3139 350.323 86.6475C350.392 87.4297 351.81 87.2121 351.74 86.432C351.534 84.1165 351.326 81.801 351.119 79.4856C351.089 79.152 351.06 78.8184 351.03 78.4858C350.96 77.7036 349.542 77.9212 349.613 78.7013Z" fill="#E82542"/>
<path d="M364.18 129.663L364.578 129.628C369.137 129.219 372.448 125.117 371.879 120.577C370.053 105.997 366.551 76.8425 367.092 71.7226C367.818 64.8425 374.026 55.7162 376.531 50.9952C379.036 46.2741 372.687 38.8449 371.92 38.4304C371.154 38.016 370.049 38.6729 370.401 39.6032C370.401 39.6032 369.002 37.8575 368.335 40.0218C368.092 40.8081 367.467 39.3225 366.522 41.9809C366.198 42.8946 365.772 41.986 365.355 43.5431C364.939 45.1003 368.694 47.6592 368.314 49.5137C367.934 51.3681 361.582 53.8504 361.781 59.6293C361.981 65.4081 361.275 70.3343 361.063 71.9246C360.897 73.1647 357.243 104.593 355.659 121.102C355.19 125.995 359.284 130.104 364.18 129.663Z" fill="#FF8D6B"/>
<path d="M267.591 63.4956C273.901 66.3611 276.694 73.7997 273.828 80.11C272.667 82.669 270.752 84.6488 268.467 85.9075L269.402 90.8306L264.988 87.1994C262.46 87.734 259.746 87.4978 257.213 86.3468C250.902 83.4812 248.109 76.0427 250.975 69.7323C253.842 63.423 261.28 60.63 267.591 63.4956Z" fill="white"/>
<path d="M262.402 76.2394V76.1658V76.141C262.402 75.8219 262.671 75.5764 262.967 75.5764C265.274 75.5764 267.115 73.7105 267.115 71.4282C267.115 69.0961 265.274 67.279 262.967 67.2551C261.42 67.2551 260.095 68.0653 259.382 69.3416C259.235 69.5872 258.867 69.7094 258.597 69.5385C258.303 69.3665 258.229 69.0226 258.401 68.7532C259.309 67.1577 261.003 66.1021 262.967 66.1021C265.888 66.1021 268.269 68.4838 268.269 71.4292C268.269 74.129 266.206 76.3875 263.556 76.6818V79.308C263.556 79.6271 263.286 79.8727 262.967 79.8727C262.671 79.8727 262.402 79.6271 262.402 79.308V76.2394ZM262.402 82.1799C262.402 81.8608 262.671 81.5904 262.967 81.5904C263.286 81.5904 263.556 81.8608 263.556 82.1799V82.7196C263.556 83.0387 263.286 83.2843 262.967 83.2843C262.671 83.2843 262.402 83.0387 262.402 82.7196V82.1799Z" fill="#162A74"/>
<path d="M189.403 113.723C181.547 114.343 175.221 120.771 174.715 128.636C174.501 131.943 175.293 135.051 176.812 137.686C177.401 138.708 177.353 139.975 176.675 140.938L174.167 144.497L179.559 143.05C180.533 142.789 181.581 142.906 182.444 143.426C185.149 145.057 188.374 145.913 191.813 145.681C199.661 145.153 206.063 138.829 206.677 130.987C207.451 121.118 199.274 112.944 189.403 113.723Z" fill="white"/>
<path d="M194.925 126.019C194.743 120.163 192.102 119.958 190.416 120.598C188.71 121.246 188.438 122.994 189.524 125.293C190.146 126.612 191.834 126.719 193.161 126.571C193.334 128.367 193.365 131.06 192.542 133.686C191.336 133.19 189.642 132.779 188.797 133.893C187.403 135.733 187.346 137.399 188.792 138.405C189.953 139.212 191.783 139.662 193.07 136.971C195.307 133.089 195.221 128.56 194.925 126.019Z" fill="url(#paint4_linear_1570_1574)"/>
<path opacity="0.37" d="M128.858 100.721C138.471 101.479 146.213 109.344 146.832 118.968C147.092 123.013 146.124 126.818 144.266 130.043C143.545 131.293 143.604 132.843 144.435 134.022L147.503 138.376L140.905 136.606C139.714 136.286 138.43 136.43 137.373 137.067C134.064 139.063 130.118 140.111 125.91 139.827C116.307 139.179 108.473 131.442 107.721 121.847C106.775 109.769 116.781 99.7675 128.858 100.721Z" fill="#D9E0F3"/>
<path d="M126.435 99.181C136.048 99.9393 143.789 107.806 144.408 117.428C144.668 121.474 143.701 125.278 141.842 128.503C141.121 129.754 141.18 131.303 142.011 132.482L145.08 136.837L138.481 135.066C137.29 134.746 136.006 134.89 134.951 135.527C131.641 137.524 127.694 138.571 123.487 138.287C113.884 137.64 106.05 129.903 105.298 120.307C104.351 108.229 114.356 98.2289 126.435 99.181Z" fill="white"/>
<path d="M124.399 118.511L114.405 112.599C114.636 112.442 114.916 112.349 115.217 112.349H134.725C135.033 112.349 135.316 112.446 135.55 112.61C134.219 113.411 131.523 115.064 125.99 118.495C125.504 118.797 124.893 118.803 124.399 118.511Z" fill="url(#paint5_linear_1570_1574)"/>
<path d="M124.132 119.619C124.457 119.812 124.82 119.907 125.181 119.907C125.558 119.907 125.934 119.803 126.267 119.597C130.865 116.746 134.282 114.644 135.927 113.65C136.079 113.879 136.169 114.153 136.169 114.448V125.448C136.169 126.245 135.523 126.892 134.725 126.892H115.217C114.419 126.892 113.773 126.245 113.773 125.448V114.448C113.773 114.148 113.865 113.869 114.022 113.638L124.132 119.619Z" fill="url(#paint6_linear_1570_1574)"/>
<path opacity="0.37" d="M293.757 79.8408C300.465 80.3702 305.867 85.859 306.299 92.5733C306.481 95.3965 305.805 98.0507 304.508 100.301C304.006 101.173 304.046 102.255 304.626 103.078L306.768 106.117L302.162 104.881C301.331 104.658 300.435 104.758 299.699 105.203C297.39 106.597 294.636 107.327 291.699 107.129C284.998 106.678 279.531 101.278 279.007 94.5822C278.347 86.1553 285.328 79.1757 293.757 79.8408Z" fill="#D9E0F3"/>
<path d="M291.379 78.0215C298.087 78.5509 303.489 84.0396 303.921 90.755C304.102 93.5782 303.427 96.2324 302.13 98.4826C301.627 99.3549 301.668 100.437 302.248 101.26L304.389 104.299L299.784 103.063C298.952 102.84 298.057 102.94 297.319 103.384C295.01 104.777 292.256 105.508 289.32 105.31C282.619 104.858 277.152 99.4585 276.628 92.7628C275.968 84.3359 282.95 77.3563 291.379 78.0215Z" fill="white"/>
<path d="M289.959 91.5104L282.984 87.385C283.146 87.2752 283.341 87.21 283.551 87.21H297.164C297.379 87.21 297.577 87.2783 297.74 87.3923C296.812 87.9517 294.931 89.1048 291.069 91.499C290.729 91.7104 290.304 91.7135 289.959 91.5104Z" fill="url(#paint7_linear_1570_1574)"/>
<path d="M289.772 92.2834C289.999 92.4181 290.252 92.4844 290.505 92.4844C290.767 92.4844 291.03 92.4119 291.262 92.2679C294.471 90.2788 296.854 88.8107 298.002 88.1177C298.109 88.2772 298.171 88.4689 298.171 88.675V96.3498C298.171 96.9061 297.721 97.3578 297.163 97.3578H283.55C282.994 97.3578 282.542 96.9072 282.542 96.3498V88.675C282.542 88.4658 282.606 88.271 282.716 88.1094L289.772 92.2834Z" fill="url(#paint8_linear_1570_1574)"/>
<path d="M310.312 38.1909H277.973C277.084 38.1909 276.363 38.912 276.363 39.8009V59.3472C276.363 60.2361 277.084 60.9572 277.973 60.9572H298.985C299.454 60.9572 299.899 61.1613 300.205 61.5177L303.533 65.3851C303.983 65.9093 304.842 65.5902 304.842 64.8992V62.5682C304.842 61.6783 305.563 60.9582 306.452 60.9582H310.31C311.199 60.9582 311.92 60.2372 311.92 59.3483V39.8019C311.922 38.912 311.201 38.1909 310.312 38.1909Z" fill="white"/>
<path d="M285.028 49.3963C285.028 50.4892 284.142 51.375 283.049 51.375C281.956 51.375 281.07 50.4892 281.07 49.3963C281.07 48.3033 281.956 47.4175 283.049 47.4175C284.142 47.4175 285.028 48.3043 285.028 49.3963Z" fill="#162A74"/>
<path d="M295.482 49.3963C295.482 50.4892 294.596 51.375 293.503 51.375C292.41 51.375 291.524 50.4892 291.524 49.3963C291.524 48.3033 292.41 47.4175 293.503 47.4175C294.597 47.4175 295.482 48.3043 295.482 49.3963Z" fill="#162A74"/>
<path d="M305.938 49.3963C305.938 50.4892 305.052 51.375 303.959 51.375C302.866 51.375 301.98 50.4892 301.98 49.3963C301.98 48.3033 302.866 47.4175 303.959 47.4175C305.052 47.4175 305.938 48.3043 305.938 49.3963Z" fill="#162A74"/>
<path opacity="0.37" d="M147.686 155.096H198.927C200.336 155.096 201.479 156.239 201.479 157.648V188.619C201.479 190.028 200.336 191.171 198.927 191.171H165.634C164.891 191.171 164.184 191.495 163.7 192.058L158.426 198.186C157.713 199.016 156.35 198.511 156.35 197.416V193.722C156.35 192.313 155.207 191.17 153.798 191.17H147.685C146.276 191.17 145.133 190.027 145.133 188.618V157.647C145.134 156.239 146.277 155.096 147.686 155.096Z" fill="#D9E0F3"/>
<path d="M145.879 152.971H197.12C198.529 152.971 199.672 154.113 199.672 155.523V186.494C199.672 187.903 198.529 189.046 197.12 189.046H163.827C163.084 189.046 162.377 189.37 161.893 189.933L156.619 196.061C155.905 196.891 154.543 196.386 154.543 195.291V191.597C154.543 190.188 153.4 189.045 151.991 189.045H145.877C144.468 189.045 143.325 187.903 143.325 186.493V155.522C143.327 154.114 144.47 152.971 145.879 152.971Z" fill="white"/>
<path d="M157.411 173.737C158.883 173.737 160.077 172.544 160.077 171.071C160.077 169.599 158.883 168.406 157.411 168.406C155.939 168.406 154.746 169.599 154.746 171.071C154.746 172.544 155.939 173.737 157.411 173.737Z" fill="url(#paint9_linear_1570_1574)"/>
<path d="M171.5 173.737C172.972 173.737 174.165 172.544 174.165 171.071C174.165 169.599 172.972 168.406 171.5 168.406C170.027 168.406 168.834 169.599 168.834 171.071C168.834 172.544 170.027 173.737 171.5 173.737Z" fill="url(#paint10_linear_1570_1574)"/>
<path d="M185.587 173.737C187.059 173.737 188.252 172.544 188.252 171.071C188.252 169.599 187.059 168.406 185.587 168.406C184.114 168.406 182.921 169.599 182.921 171.071C182.921 172.544 184.114 173.737 185.587 173.737Z" fill="url(#paint11_linear_1570_1574)"/>
<defs>
<linearGradient id="paint0_linear_1570_1574" x1="244.811" y1="333.411" x2="400.512" y2="240.383" gradientUnits="userSpaceOnUse">
<stop stop-color="#5024FE"/>
<stop offset="1" stop-color="#E01CE4"/>
</linearGradient>
<linearGradient id="paint1_linear_1570_1574" x1="353.447" y1="251.809" x2="368.575" y2="239.793" gradientUnits="userSpaceOnUse">
<stop stop-color="#5024FE"/>
<stop offset="1" stop-color="#E01CE4"/>
</linearGradient>
<linearGradient id="paint2_linear_1570_1574" x1="298.513" y1="210.888" x2="309.627" y2="202.06" gradientUnits="userSpaceOnUse">
<stop stop-color="#5024FE"/>
<stop offset="1" stop-color="#E01CE4"/>
</linearGradient>
<linearGradient id="paint3_linear_1570_1574" x1="-165.967" y1="351.433" x2="-165.556" y2="331.704" gradientUnits="userSpaceOnUse">
<stop stop-color="#5024FE"/>
<stop offset="1" stop-color="#E01CE4"/>
</linearGradient>
<linearGradient id="paint4_linear_1570_1574" x1="184.698" y1="141.828" x2="200.353" y2="136.813" gradientUnits="userSpaceOnUse">
<stop stop-color="#5024FE"/>
<stop offset="1" stop-color="#E01CE4"/>
</linearGradient>
<linearGradient id="paint5_linear_1570_1574" x1="105.682" y1="119.682" x2="111.673" y2="103.506" gradientUnits="userSpaceOnUse">
<stop stop-color="#5024FE"/>
<stop offset="1" stop-color="#E01CE4"/>
</linearGradient>
<linearGradient id="paint6_linear_1570_1574" x1="104.534" y1="128.88" x2="122.715" y2="103.861" gradientUnits="userSpaceOnUse">
<stop stop-color="#5024FE"/>
<stop offset="1" stop-color="#E01CE4"/>
</linearGradient>
<linearGradient id="paint7_linear_1570_1574" x1="276.898" y1="92.3277" x2="281.078" y2="81.0391" gradientUnits="userSpaceOnUse">
<stop stop-color="#5024FE"/>
<stop offset="1" stop-color="#E01CE4"/>
</linearGradient>
<linearGradient id="paint8_linear_1570_1574" x1="276.095" y1="98.7451" x2="288.781" y2="81.2862" gradientUnits="userSpaceOnUse">
<stop stop-color="#5024FE"/>
<stop offset="1" stop-color="#E01CE4"/>
</linearGradient>
<linearGradient id="paint9_linear_1570_1574" x1="152.546" y1="174.537" x2="160.076" y2="168.405" gradientUnits="userSpaceOnUse">
<stop stop-color="#5024FE"/>
<stop offset="1" stop-color="#E01CE4"/>
</linearGradient>
<linearGradient id="paint10_linear_1570_1574" x1="166.635" y1="174.537" x2="174.165" y2="168.405" gradientUnits="userSpaceOnUse">
<stop stop-color="#5024FE"/>
<stop offset="1" stop-color="#E01CE4"/>
</linearGradient>
<linearGradient id="paint11_linear_1570_1574" x1="180.722" y1="174.537" x2="188.252" y2="168.405" gradientUnits="userSpaceOnUse">
<stop stop-color="#5024FE"/>
<stop offset="1" stop-color="#E01CE4"/>
</linearGradient>
</defs>
</svg>
