<svg width="18" height="18" viewBox="0 0 18 18" fill="none" xmlns="http://www.w3.org/2000/svg">
<path d="M8.99999 0.000839233C9.45187 0.000839233 9.81816 0.367166 9.81816 0.819008V2.45538C9.81816 2.90725 9.45187 3.27355 8.99999 3.27355C8.54812 3.27355 8.18182 2.90722 8.18182 2.45538V0.819008C8.18182 0.367166 8.54812 0.000839233 8.99999 0.000839233Z" fill="#7A7A7A"/>
<path d="M9.00001 4.46198C6.49323 4.46198 4.46106 6.49411 4.46106 9.00095C4.46106 11.5077 6.49323 13.5399 9.00001 13.5399C11.5068 13.5399 13.539 11.5077 13.539 9.00095C13.539 6.49411 11.5068 4.46198 9.00001 4.46198Z" fill="#7A7A7A"/>
<path d="M3.81273 2.65664C3.4932 2.33711 2.97515 2.33711 2.65566 2.65664C2.33613 2.97616 2.33613 3.49421 2.65566 3.81373L3.82449 4.98257C4.14402 5.30209 4.66206 5.30209 4.98156 4.98257C5.30108 4.66304 5.30108 4.14499 4.98156 3.82547L3.81273 2.65664Z" fill="#7A7A7A"/>
<path d="M0 9.001C0 8.54913 0.366327 8.18283 0.818169 8.18283H2.45454C2.90641 8.18283 3.27271 8.54913 3.27271 9.001C3.27271 9.45287 2.90641 9.81917 2.45454 9.81917H0.818169C0.366327 9.8192 0 9.45291 0 9.001Z" fill="#7A7A7A"/>
<path d="M4.98156 14.177C5.30108 13.8575 5.30108 13.3395 4.98156 13.0199C4.66203 12.7004 4.14398 12.7004 3.82449 13.0199L2.65566 14.1888C2.33613 14.5082 2.33613 15.0263 2.65566 15.3458C2.97518 15.6653 3.4932 15.6653 3.81273 15.3458L4.98156 14.177Z" fill="#7A7A7A"/>
<path d="M8.99981 14.7275C9.45168 14.7275 9.81798 15.0938 9.81798 15.5457V17.1821C9.81798 17.634 9.45168 18.0002 8.99981 18.0002C8.54794 18.0002 8.18164 17.634 8.18164 17.1821V15.5457C8.18164 15.0938 8.54794 14.7275 8.99981 14.7275Z" fill="#7A7A7A"/>
<path d="M14.176 13.0198C13.8564 12.7003 13.3384 12.7003 13.0189 13.0198C12.6993 13.3394 12.6993 13.8574 13.0189 14.1769L14.1877 15.3458C14.5073 15.6653 15.0253 15.6653 15.3448 15.3458C15.6643 15.0263 15.6643 14.5082 15.3448 14.1887L14.176 13.0198Z" fill="#7A7A7A"/>
<path d="M14.7275 9.00079C14.7275 8.54891 15.0938 8.18262 15.5457 8.18262H17.1821C17.634 8.18262 18.0002 8.54891 18.0002 9.00079C18.0002 9.45266 17.634 9.81895 17.1821 9.81895H15.5457C15.0938 9.81899 14.7275 9.45269 14.7275 9.00079Z" fill="#7A7A7A"/>
<path d="M15.3448 3.81186C15.6643 3.49233 15.6643 2.97428 15.3448 2.65476C15.0253 2.33523 14.5073 2.33523 14.1877 2.65476L13.0189 3.82359C12.6993 4.14311 12.6993 4.66116 13.0189 4.98069C13.3384 5.30021 13.8564 5.30021 14.176 4.98069L15.3448 3.81186Z" fill="#7A7A7A"/>
</svg>
