<svg width="34" height="34" viewBox="0 0 34 34" fill="none" xmlns="http://www.w3.org/2000/svg">
<path d="M8.45848 1.06207C4.37929 1.06207 1.08572 4.37101 1.07909 8.45703L1.06251 18.6774C1.05608 22.5831 4.08316 25.7432 7.90962 26.0204V32.4058C7.90945 32.5111 7.94056 32.614 7.99899 32.7016C8.05742 32.7891 8.14054 32.8574 8.23781 32.8976C8.33507 32.9378 8.4421 32.9483 8.54531 32.9276C8.64852 32.9069 8.74326 32.856 8.81751 32.7814L15.509 26.0734H25.5592C29.6383 26.0734 32.9375 22.7652 32.9375 18.6784V8.45807C32.9375 4.37265 29.6549 1.06207 25.5757 1.06207H8.45848ZM11.6885 11.9755C12.5624 11.9755 13.2812 12.6954 13.2812 13.5693C13.2812 14.4431 12.5624 15.163 11.6885 15.163C10.8146 15.163 10.0948 14.4431 10.0948 13.5693C10.0948 12.6954 10.8146 11.9755 11.6885 11.9755ZM17 11.9755C17.8739 11.9755 18.5937 12.6954 18.5937 13.5693C18.5937 14.4431 17.8739 15.163 17 15.163C16.1261 15.163 15.4062 14.4431 15.4062 13.5693C15.4062 12.6954 16.1261 11.9755 17 11.9755ZM22.3135 11.9755C23.1874 11.9755 23.9073 12.6954 23.9073 13.5693C23.9073 14.4431 23.1874 15.163 22.3135 15.163C21.4396 15.163 20.7187 14.4431 20.7187 13.5693C20.7187 12.6954 21.4396 11.9755 22.3135 11.9755Z" fill="white"/>
</svg>
