<svg width="24" height="14" viewBox="0 0 24 14" fill="none" xmlns="http://www.w3.org/2000/svg">
<path d="M23.8414 6.61547L18.387 1.161C18.191 0.932211 17.8467 0.90554 17.6179 1.10152C17.3891 1.29746 17.3624 1.64179 17.5584 1.87059C17.5767 1.89191 17.5966 1.91183 17.6179 1.93007L22.1396 6.45727H0.545428C0.244214 6.45727 0 6.70148 0 7.00275C0 7.30401 0.244214 7.54817 0.545428 7.54817H22.1396L17.6179 12.0699C17.3891 12.2658 17.3624 12.6102 17.5584 12.839C17.7544 13.0677 18.0987 13.0944 18.3275 12.8984C18.3488 12.8802 18.3687 12.8603 18.387 12.839L23.8414 7.38449C24.0529 7.17182 24.0529 6.82823 23.8414 6.61547Z" fill="#121212"/>
</svg>
