<svg width="24" height="22" viewBox="0 0 24 22" fill="none" xmlns="http://www.w3.org/2000/svg">
<path d="M22.5707 8.68218L3.20693 0.370321C2.39116 0.0201162 1.4696 0.174173 0.801817 0.772169C0.134035 1.37026 -0.145246 2.29174 0.0730042 3.1771L1.97585 10.8965L0.0730042 18.616C-0.145246 19.5013 0.133989 20.4228 0.80177 21.0209C1.47082 21.6202 2.39261 21.7723 3.20693 21.4227L22.5707 13.1109C23.4523 12.7325 24 11.884 24 10.8965C24 9.9091 23.4523 9.0606 22.5707 8.68218ZM22.0317 11.7672L2.66796 20.0791C2.34232 20.2188 1.98883 20.1598 1.72225 19.921C1.45572 19.6823 1.34861 19.3288 1.43571 18.9754L3.24785 11.6239H10.2353C10.6236 11.6239 10.9384 11.2982 10.9384 10.8965C10.9384 10.4947 10.6236 10.1691 10.2353 10.1691H3.2479L1.43571 2.81768C1.34861 2.46427 1.45572 2.11077 1.72225 1.87205C1.98879 1.63333 2.34218 1.57426 2.66791 1.71402L22.0317 10.0259C22.5532 10.2497 22.5937 10.7489 22.5937 10.8965C22.5937 11.0442 22.5532 11.5434 22.0317 11.7672Z" fill="#368DC5"/>
</svg>
