<svg width="19" height="19" viewBox="0 0 19 19" fill="none" xmlns="http://www.w3.org/2000/svg">
<path fill-rule="evenodd" clip-rule="evenodd" d="M18.488 2.21365C18.5482 1.81682 18.3791 1.41915 18.0518 1.18557C17.7244 0.952825 17.2933 0.923523 16.9375 1.11022C14.0901 2.60546 4.12992 7.83463 1.07078 9.44039C0.693203 9.63797 0.470507 10.0415 0.503158 10.466C0.535809 10.8904 0.817109 11.2554 1.22064 11.3936C2.41198 11.8013 3.86788 12.3011 6.15093 13.0839L15.3602 4.47661L7.90738 13.6858C10.342 14.5205 14.1487 15.8257 15.104 16.1531C15.4029 16.2561 15.7327 16.2201 16.0031 16.0568C16.2736 15.8927 16.4569 15.6173 16.5046 15.3042L18.488 2.21365Z" fill="#fff"/>
<path fill-rule="evenodd" clip-rule="evenodd" d="M6.8475 14.2074V16.9451C6.8475 17.3653 7.09448 17.7463 7.47708 17.9179C7.86052 18.0903 8.30842 18.0217 8.62237 17.7421L10.9984 15.6306L6.8475 14.2074Z" fill="#fff"/>
</svg>
