<svg width="24" height="24" viewBox="0 0 24 24" fill="none" xmlns="http://www.w3.org/2000/svg">
<path fill-rule="evenodd" clip-rule="evenodd" d="M8.27509 2.57416C8.35506 2.63775 8.43971 2.69158 8.52541 2.74609C8.61786 2.80489 8.71155 2.86448 8.80184 2.93788C9.5169 3.51724 10.1975 4.57783 9.69289 5.45284C9.35084 6.04459 9.91108 6.72692 10.5422 6.55944C11.1733 6.39022 11.3173 5.51916 10.7233 5.17703C9.8501 4.67148 9.90933 3.412 10.239 2.55207C10.2804 2.44402 10.3313 2.34688 10.3817 2.25095C10.4292 2.16047 10.4761 2.07101 10.5139 1.97451C10.9575 0.853355 9.91818 -0.249771 8.79836 0.0498276C7.67866 0.349492 7.33046 1.8255 8.27509 2.57416ZM11.3527 9.41978C12.8101 9.03752 14.3082 9.88298 14.6988 11.3094C15.0894 12.7342 14.2243 14.1992 12.7667 14.582C11.3093 14.9642 9.81215 14.1183 9.42159 12.6918C9.03104 11.2653 9.89529 9.80205 11.3527 9.41978ZM13.6192 2.24945C13.5721 2.15948 13.5255 2.07051 13.4876 1.97451C13.0438 0.85329 14.0832 -0.249767 15.203 0.04983C16.3236 0.349494 16.672 1.8255 15.7272 2.57416C15.6472 2.63749 15.5627 2.69116 15.4772 2.74546C15.3843 2.8045 15.2903 2.86424 15.1996 2.93788C14.4854 3.51717 13.8039 4.57783 14.3086 5.45284C14.6514 6.04459 14.0902 6.72867 13.4593 6.55944C12.8291 6.39015 12.6841 5.51909 13.2771 5.17703C14.1514 4.67148 14.092 3.412 13.7624 2.55207C13.7207 2.44347 13.6697 2.34589 13.6192 2.24945ZM18.3008 4.06046C18.2853 4.16214 18.2809 4.26335 18.2764 4.36581C18.2716 4.47455 18.2668 4.58467 18.2486 4.69818C18.1046 5.60628 17.5266 6.72797 16.5173 6.72797C15.8324 6.72797 15.523 7.55341 15.9845 8.01479C16.4467 8.47792 17.272 8.16735 17.272 7.48145C17.272 6.47427 18.3928 5.8949 19.3005 5.74992C19.4111 5.73348 19.5177 5.72882 19.6226 5.72422C19.7291 5.71956 19.834 5.71497 19.9394 5.69827C21.1317 5.52376 21.569 4.06977 20.7482 3.25137C19.9288 2.42975 18.4758 2.86731 18.3008 4.06046ZM21.2557 8.52397C21.3097 8.43913 21.363 8.35523 21.4257 8.27545C22.1742 7.33056 23.6502 7.67799 23.9498 8.79954C24.2503 9.91888 23.1457 10.9574 22.0257 10.5147C21.9313 10.4769 21.8431 10.4312 21.7538 10.385C21.6561 10.3343 21.5569 10.2829 21.4468 10.2407C20.5888 9.90964 19.3285 9.85088 18.8238 10.7259C18.4816 11.318 17.6113 11.1744 17.4416 10.5421C17.2727 9.91358 17.955 9.35097 18.5471 9.69265C19.4212 10.1982 20.4835 9.51625 21.0625 8.80302C21.1363 8.71165 21.1963 8.61723 21.2557 8.52397ZM22.0255 13.4867C21.9292 13.5243 21.8394 13.5714 21.7483 13.6192C21.6523 13.6696 21.5548 13.7208 21.4466 13.7623C20.5878 14.0916 19.3283 14.1503 18.8236 13.2771C18.4814 12.6832 17.6111 12.8286 17.4414 13.4575C17.2725 14.0898 17.955 14.6506 18.5469 14.3068C19.421 13.803 20.4834 14.4831 21.0623 15.2C21.136 15.29 21.1958 15.3842 21.2548 15.4772C21.309 15.5625 21.3625 15.6468 21.4255 15.7259C22.174 16.6708 23.65 16.3217 23.9497 15.2039C24.2502 14.0823 23.1455 13.042 22.0255 13.4867ZM19.6427 18.2775C19.7423 18.2816 19.8405 18.2855 19.9394 18.2994C21.1317 18.4758 21.569 19.928 20.7482 20.7483C19.9288 21.5681 18.4758 21.1325 18.3008 19.9391C18.2853 19.8375 18.2809 19.7367 18.2764 19.6345C18.2716 19.526 18.2668 19.4158 18.2486 19.3014C18.1046 18.3934 17.5266 17.274 16.5173 17.274C15.8324 17.274 15.523 16.4465 15.9845 15.983C16.4467 15.5234 17.272 15.8323 17.272 16.5164C17.272 17.5277 18.3928 18.1047 19.3005 18.2495C19.4181 18.2682 19.5313 18.2729 19.6427 18.2775ZM15.7271 21.4258C15.6469 21.3622 15.5622 21.3082 15.4765 21.2538C15.3838 21.1949 15.29 21.1352 15.1996 21.0617C14.4853 20.4827 13.8039 19.4216 14.3085 18.5487C14.6514 17.9549 14.0901 17.2729 13.4592 17.4418C12.8291 17.611 12.6841 18.4825 13.2771 18.8247C14.1513 19.328 14.092 20.5892 13.7624 21.4457C13.7199 21.5574 13.6676 21.6577 13.6161 21.7566C13.57 21.8451 13.5246 21.9322 13.4875 22.0251C13.0437 23.146 14.0832 24.2511 15.2028 23.9497C16.3236 23.65 16.672 22.1739 15.7271 21.4258ZM10.3843 21.7541C10.4309 21.8434 10.4768 21.9313 10.5139 22.0251C10.9576 23.1462 9.91828 24.2511 8.79833 23.9495C7.67871 23.65 7.33042 22.1739 8.27513 21.4258C8.35547 21.3617 8.44055 21.3075 8.52665 21.2526C8.6187 21.1942 8.71194 21.1347 8.80187 21.0617C9.51693 20.4827 10.1975 19.4216 9.69292 18.5487C9.35087 17.9549 9.91112 17.2729 10.5422 17.4418C11.1733 17.6112 11.3173 18.4827 10.7233 18.8247C9.85009 19.328 9.9093 20.5892 10.239 21.4457C10.2811 21.5564 10.3332 21.6562 10.3843 21.7541ZM5.70175 19.939C5.71667 19.8378 5.72085 19.7375 5.72512 19.6357C5.72966 19.5267 5.73429 19.4161 5.75219 19.3013C5.89615 18.3932 6.47415 17.2738 7.48431 17.2738C8.16929 17.2738 8.47945 16.4464 8.01829 15.9828C7.55504 15.5233 6.72958 15.8322 6.72958 16.5162C6.72958 17.5275 5.60896 18.1045 4.70044 18.2494C4.58366 18.2681 4.47081 18.2727 4.35928 18.2773C4.25985 18.2814 4.16145 18.2854 4.06228 18.2994C2.8701 18.4758 2.43346 19.9278 3.25282 20.7481C4.07286 21.5681 5.52496 21.1323 5.70175 19.939ZM2.74805 15.474C2.69326 15.5601 2.63912 15.6452 2.57509 15.725C1.82647 16.6699 0.350581 16.3208 0.050126 15.2031C-0.249592 14.0815 0.854287 13.0412 1.97592 13.4858C2.07226 13.5234 2.1619 13.5706 2.25281 13.6184C2.34867 13.6688 2.44592 13.72 2.55392 13.7615C3.41207 14.0908 4.6715 14.1495 5.17708 13.2763C5.51894 12.6823 6.38955 12.8277 6.55843 13.4566C6.72806 14.089 6.04576 14.6498 5.4528 14.306C4.57871 13.8022 3.51819 14.4823 2.93919 15.1991C2.86611 15.2884 2.80669 15.3818 2.74805 15.474ZM1.97573 10.5148C2.0702 10.4771 2.15823 10.4313 2.2473 10.3851C2.34488 10.3344 2.44373 10.2831 2.55373 10.2408C3.41195 9.90979 4.67131 9.85103 5.17689 10.726C5.5188 11.3181 6.38942 11.1746 6.55824 10.5422C6.72787 9.91374 6.04557 9.35113 5.45263 9.6928C4.57847 10.1983 3.51793 9.5164 2.93898 8.80318C2.86578 8.71271 2.8063 8.6193 2.74751 8.52699C2.69285 8.44115 2.63879 8.35626 2.57489 8.27561C1.82628 7.33071 0.350394 7.67814 0.0499407 8.79969C-0.24971 9.91903 0.8541 10.9576 1.97573 10.5148ZM4.3792 5.72421C4.27298 5.71956 4.16809 5.71495 4.06226 5.69829C2.87009 5.52377 2.43351 4.06979 3.25275 3.25132C4.07284 2.42977 5.52494 2.86732 5.70173 4.06048C5.71665 4.16161 5.72085 4.2623 5.72508 4.36423C5.72964 4.47347 5.73425 4.58411 5.75219 4.69819C5.89613 5.6063 6.47414 6.72799 7.48429 6.72799C8.16929 6.72799 8.47952 7.55341 8.01828 8.01481C7.55504 8.47794 6.72958 8.16735 6.72958 7.48146C6.72958 6.47427 5.60896 5.89491 4.70042 5.74994C4.59059 5.73348 4.48425 5.72882 4.3792 5.72421Z" fill="url(#paint0_linear_1358_1633)"/>
<defs>
<linearGradient id="paint0_linear_1358_1633" x1="-9.89985" y1="27.5999" x2="23.9973" y2="-0.00344603" gradientUnits="userSpaceOnUse">
<stop stop-color="#5024FE"/>
<stop offset="1" stop-color="#E01CE4"/>
</linearGradient>
</defs>
</svg>
